ply
format ascii 1.0
element vertex 138
property float x
property float y
property float z
element face 171
property list int int vertex_index
property float area
property int epidermis
element edge 276
property int source
property int target
property list int int face_index
property float length
element volume 32
property list int int face_index
property int label
end_header
66.45 37.05 112.05
38.44883480670746 52.393900599052984 122.569409132753
90.50625 42.449999999999996 120.50625
85.41 64.41 159.98999999999998
94.95 75.14999999999999 123.14999999999999
94.05 71.85 122.25
87.45 66.45 123.75
70.64999999999999 95.15 149.04999999999998
60.75 79.64999999999999 144.75
78.6 76.64999999999999 129.75
70.2 76.35 130.65
72.45 66.89999999999999 127.64999999999999
65.25 78.14999999999999 135.75
70.95 66.75 131.4
74.85 64.64999999999999 143.54999999999998
61.8 59.55 122.25
64.35 59.14999999999999 121.05
62.55 59.849999999999994 122.25
48.75 68.85 126.6
66.14999999999999 52.05 102.6
76.35 51.75 104.55
78.45 51.15 106.35
77.55 78.45 121.35
80.35 67.45 83.35
66.45 51.15 97.05
67.05 52.35 102.14999999999999
81.45 73.95 130.65
81.75 73.95 130.95
82.08157403780297 65.77792115582933 95.18062966308582
102.75 58.574999999999996 102.825
96.17335693439975 58.56800176083131 89.97205477159555
62.25 71.55 146.25
59.14999999999999 70.75 148.65
75.92456082348329 66.29582389679624 88.55675113020031
79.95 51.75 99.45
79.05 51.65 99.55
79.05 53.55 97.35
85.95 38.78333333333333 87.89999999999999
82.35 72.14999999999999 130.65
82.35 72.14999999999999 130.95
82.05 73.35 130.95
61.65 72.14999999999999 145.65
61.65 71.85 145.65
59.55 46.05 97.95
99.554310229523 57.14274416427887 102.9565054254249
65.85 69.45 135.75
65.25 70.05 136.04999999999998
51.15 39.059999999999995 96.09
78.45 49.949999999999996 107.36999999999999
68.39999999999999 48.15 110.7
86.05132129472489 70.15728242366966 101.31720950114295
64.95 58.349999999999994 111.89999999999999
49.21662085676196 59.62676923789195 115.16133199978213
49.21662085676196 59.62676923789195 115.16133199978213
71.78715108150598 79.6025725311411 99.18924812319713
100.18908140414223 73.25931475909606 103.92174629051546
93.45 70.64999999999999 109.35
88.05 71.55 108.14999999999999
87.14999999999999 70.5 106.64999999999999
89.79 66.75 104.36999999999999
101.67210741899487 49.18003025432858 113.2730901750938
87.14999999999999 67.95 117.44999999999999
86.55 66.45 122.25
71.85 58.05 116.55
73.64999999999999 58.65 120.44999999999999
61.14774533233742 54.45245207893469 112.46264939844896
65.85 58.05 120.44999999999999
71.85 57.75 122.55
85.05 56.85 107.55
78.16767009441828 67.53694160890102 108.80539047007282
78.15687554691098 67.35919307688071 109.4748079568522
77.56266891870305 67.82846395569781 118.78845048228354
67.40715247353528 57.802116118569884 111.59006001319247
75.14999999999999 56.55 118.05
50.08661460940469 43.20167236197578 106.99556227774994
46.88323405016161 56.35257911682679 95.78838343003522
43.599173983180606 47.062646825616085 112.62602634151041
49.21662085676196 59.62676923789195 115.16133199978213
57.75 20.849999999999998 141.45
67.64999999999999 17.55 107.25
32.37 30.99 137.13
24.15 41.65 108.55
24.15 40.35 110.55
69.14999999999999 28.95 151.35
79.5 33.75 150.9
99.45 36.15 124.94999999999999
98.55 37.05 129.9
85.64999999999999 25.8 105.14999999999999
93.14999999999999 88.8 153.45
85.64999999999999 63.75 163.35
106.64999999999999 89.55 139.95
114.45 68.85 136.65
86.55 62.55 163.35
110.55 57.75 139.95
73.05 100.05 153.6
73.64999999999999 65.25 170.85
48.15 59.25 166.65
47.55 59.849999999999994 166.35
71.25 101.1 153.75
43.05 94.05 155.25
51.75 38.85 162.45
32.25 37.8 144.75
49.05 56.85 166.5
30.05 54.75 154.04999999999998
104.45 101.25 125.25
105.45 101.55 120.75
114.45 81.75 94.35
113.94999999999999 73.55 92.05
115.35 58.349999999999994 100.05
60.75 55.949999999999996 62.55
76.64999999999999 63.25 65.75
18.974999999999998 74.925 107.175
22.349999999999998 85.5 118.35
34.55 80.55 78.85
31.95 97.95 120.75
41.85 105.75 105.6
38.25 81.75 77.55
46.35 91.35 78.14999999999999
17.849999999999998 70.35 132.75
73.35 112.5 139.04999999999998
71.55 116.85 124.35
90.45 112.64999999999999 114.0
71.25 114.75 133.95
55.35 115.94999999999999 117.75
33.449999999999996 99.14999999999999 128.85
34.8 96.75 142.35
19.05 68.25 139.65
79.64999999999999 72.45 66.75
77.50714285714285 76.39285714285714 66.62142857142857
79.05 34.35 152.25
115.35 57.449999999999996 100.35
88.64999999999999 36.15 83.55
88.05 35.55 84.3
82.35 110.55 91.05
86.85 102.14999999999999 79.64999999999999
40.05 37.65 83.25
39.75 32.55 93.14999999999999
43.949999999999996 29.549999999999997 92.55
7 78 79 137 136 81 82 80 582.7076315535635 True
7 78 79 87 85 86 84 83 598.0482491501698 True
6 89 92 93 91 90 88 519.5870734246934 True
4 89 95 94 88 401.60874660564946 True
6 94 95 96 97 99 98 377.44766675346875 True
5 80 78 83 100 101 483.55592307571595 True
6 101 103 97 96 102 100 484.78578653068723 True
7 104 105 106 107 108 91 90 557.4948706534053 True
7 136 137 132 131 110 109 135 723.8861915852912 True
7 112 114 115 117 116 113 111 545.9125808262019 True
5 81 82 118 112 111 428.94701360151544 True
5 136 81 111 113 135 516.2751097705784 True
6 104 105 121 120 122 119 464.55962227011315 True
6 104 90 88 94 98 119 537.7395354154191 True
4 121 133 123 120 288.76225195262964 True
6 112 114 124 125 126 118 506.3492736348021 True
6 114 115 123 120 122 124 492.69677344149113 True
6 124 125 99 98 119 122 525.846873122352 True
4 113 135 109 116 230.68423438847483 True
5 106 107 127 128 134 508.9423170648284 True
5 121 133 134 106 105 347.42119873808844 True
5 129 84 83 100 102 448.0730417611791 True
6 110 127 128 117 116 109 515.0934184632533 True
6 89 92 129 102 96 95 437.7225975254454 True
6 91 93 86 85 130 108 607.4435986333848 True
5 130 85 87 132 131 575.7438454062345 True
6 110 127 107 108 130 131 595.4234382463425 True
4 137 132 87 79 457.51266542885753 True
6 101 103 126 118 82 80 412.81596416630697 True
5 129 84 86 93 92 665.1670577496616 True
5 97 103 126 125 99 429.742681307728 True
6 123 133 134 128 117 115 504.7433205308391 True
3 78 79 0 21.059491709712773 False
6 80 78 0 74 76 1 383.6914403184053 False
3 136 47 137 33.30965341229777 False
4 1 82 81 76 40.31457250579068 False
5 136 47 74 76 81 156.60077155874285 False
5 137 47 74 0 79 278.27319390014515 False
3 1 82 80 59.44439913769922 False
6 83 78 0 49 65 66 400.8393870607863 False
6 65 49 48 72 73 63 341.67774028082965 False
5 64 67 66 65 63 446.985690442091 False
3 64 73 63 67.83646288130255 False
4 83 84 67 66 225.09551970746406 False
3 85 86 2 0.0 False
5 2 85 87 48 72 415.6354153194234 False
5 48 87 79 0 49 450.0729035595415 False
7 64 67 84 86 2 72 73 750.4841555483252 False
6 40 27 88 89 3 39 378.25171876573575 False
4 91 5 4 90 127.37972968820368 False
6 40 38 6 5 4 27 353.39782230533683 False
4 88 27 4 90 197.1797383480851 False
3 40 38 39 20.690692785696292 False
3 89 92 3 0.0 False
4 91 93 6 5 167.80650581188732 False
6 38 6 93 92 3 39 456.17034688632384 False
7 94 95 31 42 41 8 7 416.14215919787813 False
4 41 46 45 42 210.93763606199738 False
3 26 27 40 72.19690707722394 False
6 9 26 27 88 94 7 378.2821399292481 False
6 10 11 13 45 46 12 695.7033911376643 False
6 40 26 9 10 11 39 393.07039024789015 False
5 9 7 8 12 10 374.42946561473434 False
5 45 13 14 31 42 316.94145946924635 False
5 89 95 31 14 3 239.74054077225892 False
5 11 13 14 3 39 390.2803431966857 False
4 8 12 46 41 217.40458498291042 False
5 41 97 96 32 42 36.52675449796031 False
3 94 7 98 0.0 False
4 98 99 8 7 52.93670005661157 False
3 42 31 32 15.289024903975875 False
4 96 95 31 32 83.60647773375698 False
4 41 97 99 8 35.8167368933752 False
3 100 101 15 14.23099055530205 False
6 65 49 75 77 53 52 129.75652607173984 False
4 1 53 77 76 80.81177874079049 False
4 76 77 75 74 195.20282861690643 False
4 65 52 16 66 187.89926839734116 False
5 16 15 100 83 66 319.31224077294445 False
4 0 49 75 74 290.9516063258066 False
7 16 15 101 80 1 53 52 305.073968074875 False
4 17 45 46 18 51.22982531548402 False
7 17 45 42 32 102 100 15 338.6552890924194 False
3 32 96 102 24.453634568904118 False
5 101 103 18 17 15 150.4329663886459 False
5 41 97 103 18 46 90.82488717799053 False
5 104 105 56 5 4 112.95205797002242 False
3 104 90 4 6.48438477166731 False
5 106 107 30 44 55 184.29834685699194 False
4 56 105 106 55 121.0824488950174 False
7 108 29 44 55 56 5 91 372.87445143140985 False
3 29 30 44 37.02151697785321 False
4 108 29 30 107 181.09697330023903 False
4 136 135 43 47 30.664434967643345 False
4 109 135 43 24 110.99664626466762 False
5 24 109 110 36 35 273.02752938529306 False
3 131 37 132 0.4706930744743444 False
5 36 110 131 37 34 272.2459146056858 False
8 137 47 43 24 35 34 37 132 413.7614073704204 False
3 35 36 34 5.337205814121163 False
5 51 53 77 111 112 127.19025890188948 False
5 113 19 75 77 111 288.7903363771488 False
6 112 114 63 65 52 51 327.9427670867045 False
6 114 115 54 71 73 63 487.83612328044546 False
4 25 116 113 19 76.84829854128279 False
4 25 116 117 20 218.04675089244057 False
5 54 71 72 48 21 321.9207551052474 False
7 75 19 25 20 21 48 49 326.59194972651943 False
3 51 53 52 1.1650043722805297e-13 False
3 72 71 73 146.44677356726692 False
5 115 117 20 21 54 467.2020215317726 False
4 81 76 77 111 232.0562965234821 False
3 51 118 112 50.16574956554503 False
5 51 118 82 1 53 246.92400551501547 False
4 113 135 43 19 172.1912532822886 False
5 43 19 75 74 47 174.323569045725 False
6 26 22 119 104 4 27 129.5631105202101 False
4 120 121 57 61 280.2463990218735 False
8 40 38 62 61 120 122 22 26 300.35623213484416 False
3 22 119 122 1.0688724141279955 False
4 56 105 121 57 185.398789728643 False
6 5 6 62 61 57 56 155.247116795846 False
3 62 38 6 55.227642079268705 False
3 9 26 22 28.451023696483375 False
5 98 7 9 22 119 98.20709268115083 False
5 120 123 69 70 61 415.88192237287717 False
4 121 133 58 57 243.49872320934978 False
5 57 58 68 70 61 133.05943799461033 False
3 68 70 69 2.2323486275872435 False
5 123 133 58 68 69 457.70940374569034 False
6 114 124 10 11 64 63 419.9947962731558 False
4 124 125 12 10 97.0397947284043 False
6 17 45 13 67 66 16 155.39536288242516 False
7 51 118 126 18 17 16 52 311.6797229408513 False
4 64 67 13 11 276.0734322261417 False
5 18 46 12 125 126 249.0761295109492 False
5 10 124 122 22 9 167.9947943226993 False
4 61 62 60 70 200.64339370586313 False
5 54 71 60 70 69 259.4696469566099 False
8 38 39 11 64 73 71 60 62 451.95645694444113 False
4 115 54 69 123 141.42656409652326 False
4 99 125 12 8 118.30011342865585 False
4 25 116 109 24 264.2040139080839 False
4 25 19 43 24 76.79846998518508 False
4 106 55 59 134 240.81081754841443 False
3 128 23 127 42.09283394756804 False
4 59 55 44 50 140.32986191325148 False
4 44 30 28 50 184.25352943181957 False
5 127 23 28 30 107 273.4348285739548 False
6 59 134 128 23 28 50 313.4099104736875 False
5 59 55 56 57 58 103.04301172111079 False
4 58 133 134 59 45.73125215942143 False
5 32 31 14 129 102 96.64259505984424 False
3 16 15 17 0.06860820218893256 False
5 129 84 67 13 14 230.32096035444522 False
4 110 127 23 36 70.14551740711406 False
4 25 20 35 24 67.55791320930464 False
6 128 117 20 35 36 23 298.6545936969594 False
4 129 14 3 92 53.85479662789154 False
9 50 44 29 130 85 2 60 70 68 478.9461966550152 False
3 108 29 130 21.63779612190769 False
6 2 86 93 6 62 60 498.69141912703645 False
4 58 59 50 68 4.4448571247607065 False
7 33 37 131 130 29 30 28 446.7771191788001 False
6 33 37 132 87 48 21 385.6824047224981 False
4 60 71 72 2 433.1940338871909 False
7 33 28 50 68 69 54 21 275.16002683579563 False
3 33 37 34 105.05564456899464 False
5 33 28 23 36 34 143.82918026718582 False
5 33 21 20 35 34 58.27143465814869 False
3 126 103 18 11.621683766108031 False
78 79 3 0 1 32 7.769197173872783
80 78 3 0 33 5 23.887658996242997
136 137 3 0 8 34 7.025980396522411
81 82 3 0 10 35 3.6908338298558783
136 81 3 0 11 36 19.244706494910943
137 79 3 0 27 37 20.061102311476972
80 82 3 0 28 38 10.827327979404636
83 78 3 1 5 39 18.276053779357394
83 84 3 1 43 21 8.401431252216986
85 86 3 24 1 44 0.0
85 87 3 1 45 25 19.753910657556307
87 79 3 1 27 46 18.65713610742294
84 86 3 1 29 47 20.793317724451878
88 89 3 48 2 3 20.908238311158605
90 91 3 49 2 7 13.375053239058897
88 90 3 2 51 13 19.1500312842785
89 92 3 2 53 23 0.0
91 93 3 24 2 54 12.08549528364416
92 93 3 2 29 55 24.273892772847304
94 95 3 56 3 4 21.833338141267692
88 94 3 59 3 13 17.434737925354817
89 95 3 64 3 23 20.43507750616123
96 97 3 67 4 6 5.658359456721034
98 94 3 4 13 68 0.0
98 99 3 17 4 69 18.806423546044197
96 95 3 4 71 23 12.534406283159472
97 99 3 72 4 30 18.73341384079894
100 101 3 73 5 6 8.168821387486586
83 100 3 21 5 78 22.40714239121625
80 101 3 80 28 5 14.261756690703324
100 102 3 82 21 6 17.49660566199415
96 102 3 83 6 23 11.432644421262804
101 103 3 28 6 84 18.560724077145345
97 103 3 85 6 30 24.570861291999265
104 105 3 12 86 7 12.26702145636824
104 90 3 13 87 7 6.038576786850263
106 107 3 88 19 7 8.529257081893359
105 106 3 89 20 7 16.123890055071016
91 108 3 24 90 7 26.786979806913664
107 108 3 26 92 7 7.703580512398639
136 135 3 8 11 93 13.990349780312755
109 135 3 8 18 94 15.335680600962487
109 110 3 8 22 95 17.75210777014756
131 132 3 8 25 96 2.0210950560561356
131 110 3 8 97 26 20.169640017963218
137 132 3 8 98 27 27.48487240743188
112 111 3 9 10 100 12.465180095968702
113 111 3 9 11 101 10.400495655208728
112 114 3 9 102 15 13.478903896514831
114 115 3 16 9 103 15.723408295628374
113 116 3 104 9 18 8.129996287979393
116 117 3 9 22 105 9.079362563104533
115 117 3 9 110 31 17.693167031142305
81 111 3 10 11 111 26.140901436868614
112 118 3 112 10 15 17.071889163907958
82 118 3 113 10 28 25.5105438584741
113 135 3 18 11 114 19.523466368221108
104 119 3 116 12 13 28.226919095883435
120 121 3 12 117 14 16.42947990672954
120 122 3 16 12 118 10.202076262153076
122 119 3 17 12 119 1.6628610860656199
105 121 3 120 12 20 18.242875166736297
98 119 3 17 124 13 24.12274025980878
120 123 3 16 125 14 18.863180084264233
121 133 3 126 20 14 12.71662296268353
123 133 3 129 14 31 21.726576238161652
114 124 3 16 130 15 15.73917792396096
124 125 3 17 131 15 10.36089372416169
126 118 3 28 133 15 7.150138811897534
125 126 3 135 30 15 21.93228834906981
122 124 3 16 17 136 21.5546729965459
123 115 3 16 140 31 4.590377657836174
99 125 3 17 141 30 13.46579075494295
116 109 3 18 142 22 21.01150563902033
106 134 3 144 19 20 23.319592715304235
128 127 3 145 19 22 12.772799858251659
107 127 3 26 19 148 29.201097547490107
128 134 3 19 149 31 16.684639595049067
133 134 3 151 20 31 4.237003482768495
129 102 3 152 21 23 20.483984927335985
129 84 3 29 21 154 14.348391016017784
110 127 3 26 155 22 5.267317396356069
128 117 3 157 22 31 22.314202259614355
129 92 3 29 158 23 17.20693760061499
130 85 3 24 25 159 27.669862046366102
130 108 3 24 26 160 8.759309664434275
93 86 3 24 161 29 23.44708357820705
130 131 3 25 26 163 25.979151591549684
132 87 3 25 27 164 20.98887979306888
126 103 3 170 28 30 4.478267081885032
0 78 3 32 33 39 9.077629591984493
0 79 3 32 37 46 5.443215092945945
1 76 3 33 75 35 12.402383712927062
74 76 3 33 36 76 9.41786256328703
0 74 3 33 37 79 17.763021935143435
80 1 3 80 33 38 12.6290956747368
136 47 3 34 36 93 9.825739415297502
137 47 3 34 37 98 13.495107770279654
81 76 3 35 36 111 6.255136922426519
1 82 3 113 35 38 11.900569291418439
74 47 3 115 36 37 19.719049295557717
65 49 3 40 74 39 0.0
65 66 3 41 77 39 12.037014254232764
66 83 3 43 78 39 20.893340786964973
0 49 3 79 46 39 21.10183093454756
65 63 3 40 41 102 32.98011954145545
73 63 3 40 42 103 15.38056304594766
48 72 3 40 106 45 14.108572604153393
48 49 3 40 107 46 17.977154863023152
72 73 3 40 109 47 20.14987850991793
64 63 3 41 42 130 33.58732163058863
66 67 3 41 43 132 14.821837614183284
64 67 3 41 134 47 19.458983135327813
64 73 3 42 139 47 19.176926701199125
67 84 3 154 43 47 31.556761406753203
2 85 3 44 45 159 0.0
2 86 3 161 44 47 0.0
48 87 3 164 45 46 23.11077498349714
72 2 3 165 45 47 31.884278713599326
40 27 3 48 50 58 10.463364249280229
88 27 3 48 59 51 15.867376724546267
40 39 3 48 52 61 10.393266413923827
89 3 3 48 64 53 0.0
3 39 3 48 65 55 26.80173319609072
4 5 3 49 50 86 12.840869188745582
90 4 3 49 51 87 8.95131054572526
91 5 3 49 90 54 13.774190738380383
27 4 3 50 51 116 14.63871906046221
40 38 3 50 52 118 9.421869036366768
5 6 3 121 50 54 12.16044907694946
38 6 3 50 122 55 16.554876385194703
38 39 3 139 52 55 4.392057530114686
3 92 3 53 158 55 0.0
93 6 3 161 54 55 16.67096805300299
41 42 3 56 57 67 14.076465108733196
94 7 3 56 59 68 0.0
8 7 3 56 69 62 23.031382317528053
42 31 3 56 70 63 10.594069384484436
95 31 3 56 64 71 16.15456978715881
8 41 3 56 66 72 10.30078841529134
45 46 3 81 57 60 9.56024534491214
42 45 3 57 82 63 21.37122149928904
41 46 3 57 66 85 15.756134697535508
26 27 3 58 59 116 14.307094705934736
40 26 3 58 61 118 15.33511016988617
9 26 3 123 59 61 18.86465511189746
9 7 3 59 124 62 14.800729502188663
10 11 3 130 60 61 25.697050417317797
10 12 3 131 60 62 19.507504474627563
45 13 3 132 60 63 28.254889640582757
11 13 3 65 60 134 23.32021628726693
12 46 3 66 60 135 21.181880528814084
9 10 3 136 61 62 20.575798830664144
11 39 3 65 139 61 5.748427671722848
8 12 3 66 141 62 17.121834003010978
14 31 3 64 152 63 8.443474893340246
13 14 3 65 154 63 8.973293311981589
3 14 3 64 65 158 19.893700028602936
32 42 3 82 67 70 2.960162624244696
32 96 3 83 67 71 5.142160742251366
41 97 3 72 67 85 3.191257872689893
98 7 3 124 68 69 0.0
8 99 3 72 69 141 6.642877999622523
32 31 3 152 70 71 10.347785495622803
100 15 3 73 82 78 7.38851516466982
101 15 3 80 73 84 3.856633244538636
77 53 3 74 75 100 0.0
75 77 3 74 76 101 19.785756271220873
65 52 3 74 77 102 13.281874005421587
49 75 3 74 107 79 22.0253924020629
52 53 3 80 74 108 0.0
76 77 3 75 76 111 13.994307991073596
1 53 3 80 113 75 14.93784495750623
74 75 3 115 76 79 17.572958009589236
16 66 3 132 77 78 14.579347428684411
16 52 3 80 77 133 17.867720696681083
16 15 3 80 153 78 10.84823524080022
17 45 3 81 82 132 4.629725840073106
17 18 3 81 84 133 10.554442019302591
18 46 3 81 85 135 8.555654943918558
32 102 3 152 82 83 9.586660242841655
17 15 3 153 82 84 13.13616416472187
18 103 3 170 84 85 5.605352400125158
104 4 3 116 86 87 3.4119906998239076
56 105 3 120 89 86 11.811397943194171
56 5 3 121 90 86 6.243579131638609
106 55 3 88 89 144 9.224650516406282
44 55 3 88 90 146 16.1579228897001
44 30 3 88 91 147 13.492893061981349
107 30 3 88 148 92 16.98438036480149
56 55 3 89 90 150 8.983470819760688
44 29 3 90 91 159 7.511974180202369
108 29 3 160 90 92 15.487281552166401
29 30 3 91 92 163 19.414526827714575
43 135 3 114 93 94 6.584125471549602
43 47 3 98 115 93 1.1533951297454792
24 109 3 142 94 95 11.103202003395367
24 43 3 98 94 143 11.340688611491213
36 110 3 97 155 95 15.803936106995026
24 35 3 98 156 95 11.36548304958498
35 36 3 99 157 95 18.1163655348819
131 37 3 96 97 163 0.5952345189495676
132 37 3 96 98 164 1.714948147460629
34 37 3 97 98 167 22.034469794885727
34 36 3 168 97 99 17.870769386277917
34 35 3 169 98 99 0.6421504251458411
77 111 3 100 101 111 21.606280035760328
112 51 3 112 100 102 7.7394261103915545
51 53 3 108 113 100 13.038041569590327
113 19 3 104 114 101 18.99889250487135
75 19 3 115 107 101 9.97957836296069
114 63 3 130 102 103 2.4360761633132055
51 52 3 108 133 102 13.038041569590327
54 71 3 106 138 103 23.582090071631203
73 71 3 139 109 103 19.839318831490132
115 54 3 140 110 103 19.309887420623824
25 116 3 104 105 142 19.908805852597663
25 19 3 104 107 143 0.0
25 20 3 105 107 156 13.094211921052255
20 117 3 105 157 110 23.202091183089316
48 21 3 106 107 164 9.02045328482677
72 71 3 106 109 165 15.983710162682948
21 54 3 106 166 110 18.16186993144522
20 21 3 169 107 110 12.024539054628267
51 118 3 112 113 133 13.394247104251825
43 19 3 114 115 143 14.144170984236062
26 22 3 123 116 118 7.683348762420071
22 119 3 124 116 119 2.0111090393726867
120 61 3 125 117 118 22.73007403207593
57 121 3 120 117 126 21.18195639180015
57 61 3 121 117 127 9.544905248726144
122 22 3 136 118 119 3.457323312235801
61 62 3 121 137 118 1.8347972054025825
62 38 3 122 139 118 10.98750933912632
56 57 3 120 121 150 9.748796213827703
62 6 3 121 122 161 10.283424987799547
9 22 3 136 123 124 12.177620061619677
61 70 3 137 125 127 12.46996502908223
69 70 3 128 138 125 0.6926982275834709
123 69 3 129 140 125 33.36095164660466
57 58 3 150 126 127 9.38220808088284
58 133 3 129 126 151 23.3188265349565
68 70 3 128 159 127 9.56740360997868
58 68 3 129 162 127 4.0698045400148475
68 69 3 128 129 166 9.067499921794877
10 124 3 136 130 131 4.072524382480999
64 11 3 130 139 134 13.047517205336513
12 125 3 131 141 135 13.906756968765135
16 17 3 153 132 133 2.2879577980740406
67 13 3 154 132 134 24.710524466414533
18 126 3 170 133 135 5.702187125060014
60 70 3 137 138 159 29.96456304931113
60 62 3 161 137 139 32.2723289710117
60 71 3 138 139 165 30.974962528336356
69 54 3 138 140 166 16.69612727734272
24 25 3 156 142 143 15.368793333671452
59 55 3 144 146 150 13.209848169594146
59 134 3 144 149 151 22.067669752873535
127 23 3 145 155 148 9.448734124564638
128 23 3 145 149 157 8.914666024576132
50 44 3 146 147 159 18.82541387077039
50 59 3 162 146 149 4.184086378098894
28 30 3 147 148 163 16.664049186420726
50 28 3 147 149 166 8.52028817041703
28 23 3 168 148 149 12.509224774964698
58 59 3 162 150 151 0.0
129 14 3 152 154 158 6.480221591867646
36 23 3 168 155 157 9.39224338771486
35 20 3 169 156 157 2.1745707156091107
130 29 3 160 163 159 7.7098030891946046
2 60 3 161 165 159 15.155995113612388
50 68 3 162 166 159 2.2410601442408264
33 37 3 163 164 167 22.921701890019946
33 28 3 168 163 166 9.058300160009585
33 21 3 169 164 166 14.150755933413416
33 34 3 168 169 167 9.609582908778135
8 0 33 32 35 34 36 37 38 2
11 32 1 39 40 41 42 43 44 45 46 47 3
9 2 48 49 50 51 52 53 54 55 5
13 64 65 66 3 48 56 57 58 59 60 61 62 63 6
8 67 4 69 68 70 71 72 56 7
11 33 5 39 73 74 75 76 77 78 79 80 8
9 67 6 73 81 82 83 84 85 57 9
9 7 49 86 87 88 89 90 91 92 11
9 96 97 34 98 99 8 93 94 95 12
14 100 101 102 103 40 9 74 104 105 106 107 108 109 110 15
7 112 113 35 100 10 75 111 18
8 36 101 11 76 111 114 115 93 19
11 122 12 50 116 117 86 118 119 121 58 120 20
8 68 123 13 51 116 87 59 124 22
7 128 129 117 126 125 14 127 23
13 130 131 132 133 102 134 135 41 77 15 112 81 60 25
14 130 103 136 137 42 138 139 140 16 52 125 118 123 61 26
8 131 69 136 141 17 119 124 62 28
6 18 114 104 94 142 143 30
8 144 145 146 19 147 148 149 88 31
7 144 20 150 151 120 89 126 33
10 132 70 43 78 82 21 152 153 154 63 35
8 105 142 145 22 155 156 157 95 36
7 64 83 23 53 71 152 158 41
13 159 160 161 162 137 44 146 54 150 24 121 90 127 48
13 96 128 163 164 165 166 106 138 45 147 25 91 159 49
9 160 97 163 167 168 148 26 155 92 54
12 98 164 37 167 169 107 46 79 143 115 27 156 55
9 133 38 170 108 80 113 84 153 28 56
12 65 161 165 134 154 139 109 47 55 122 29 158 67
7 66 85 135 72 170 141 30 81
12 129 162 99 166 168 169 140 110 149 151 157 31 83
