<?xml version="1.0" encoding="utf-8" standalone="no"?>
<!DOCTYPE svg PUBLIC "-//W3C//DTD SVG 1.1//EN"
  "http://www.w3.org/Graphics/SVG/1.1/DTD/svg11.dtd">
<!-- Created with matplotlib (http://matplotlib.org/) -->
<svg height="396pt" version="1.1" viewBox="0 0 576 396" width="576pt" xmlns="http://www.w3.org/2000/svg" xmlns:xlink="http://www.w3.org/1999/xlink">
 <defs>
  <style type="text/css">
*{stroke-linecap:butt;stroke-linejoin:round;stroke-miterlimit:100000;}
  </style>
 </defs>
 <g id="figure_1">
  <g id="patch_1">
   <path d="M 0 396 
L 576 396 
L 576 0 
L 0 0 
z
" style="fill:#ffffff;"/>
  </g>
  <g id="axes_1">
   <g id="patch_2">
    <path d="M 160.93125 346.5 
L 429.46875 346.5 
L 429.46875 39.6 
L 160.93125 39.6 
z
" style="fill:#eaeaf2;"/>
   </g>
   <g id="matplotlib.axis_1">
    <g id="xtick_1">
     <g id="line2d_1">
      <path clip-path="url(#pc175225d0a)" d="M 160.93125 346.5 
L 160.93125 39.6 
" style="fill:none;stroke:#ffffff;stroke-linecap:round;"/>
     </g>
     <g id="line2d_2">
      <defs>
       <path d="M 0 0 
L 0 0 
" id="m41624966e9" style="stroke:#262626;"/>
      </defs>
      <g>
       <use style="fill:#262626;stroke:#262626;" x="160.93125" xlink:href="#m41624966e9" y="346.5"/>
      </g>
     </g>
     <g id="line2d_3">
      <g>
       <use style="fill:#262626;stroke:#262626;" x="160.93125" xlink:href="#m41624966e9" y="39.6"/>
      </g>
     </g>
     <g id="text_1">
      <!-- −2.0 -->
      <defs>
       <path d="M 9.125 0 
L 9.125 10.6875 
L 18.65625 10.6875 
L 18.65625 0 
z
" id="LiberationSans-2e"/>
       <path d="M 5.03125 0 
L 5.03125 6.203125 
Q 7.515625 11.921875 11.109375 16.28125 
Q 14.703125 20.65625 18.65625 24.1875 
Q 22.609375 27.734375 26.484375 30.765625 
Q 30.375 33.796875 33.5 36.8125 
Q 36.625 39.84375 38.546875 43.15625 
Q 40.484375 46.484375 40.484375 50.6875 
Q 40.484375 53.609375 39.59375 55.828125 
Q 38.71875 58.0625 37.0625 59.5625 
Q 35.40625 61.078125 33.078125 61.828125 
Q 30.765625 62.59375 27.9375 62.59375 
Q 25.296875 62.59375 22.96875 61.859375 
Q 20.65625 61.140625 18.84375 59.671875 
Q 17.046875 58.203125 15.890625 56.03125 
Q 14.75 53.859375 14.40625 50.984375 
L 5.421875 51.8125 
Q 5.859375 55.515625 7.46875 58.78125 
Q 9.078125 62.0625 11.90625 64.53125 
Q 14.75 67 18.71875 68.40625 
Q 22.703125 69.828125 27.9375 69.828125 
Q 33.0625 69.828125 37.0625 68.609375 
Q 41.0625 67.390625 43.8125 64.984375 
Q 46.578125 62.59375 48.046875 59.078125 
Q 49.515625 55.5625 49.515625 50.984375 
Q 49.515625 47.515625 48.265625 44.390625 
Q 47.015625 41.265625 44.9375 38.421875 
Q 42.875 35.59375 40.140625 32.953125 
Q 37.40625 30.328125 34.421875 27.8125 
Q 31.453125 25.296875 28.421875 22.828125 
Q 25.390625 20.359375 22.71875 17.859375 
Q 20.0625 15.375 17.96875 12.8125 
Q 15.875 10.25 14.703125 7.46875 
L 50.59375 7.46875 
L 50.59375 0 
z
" id="LiberationSans-32"/>
       <path d="M 51.703125 34.421875 
Q 51.703125 24.515625 49.828125 17.75 
Q 47.953125 10.984375 44.703125 6.8125 
Q 41.453125 2.640625 37.0625 0.828125 
Q 32.671875 -0.984375 27.6875 -0.984375 
Q 22.65625 -0.984375 18.3125 0.828125 
Q 13.96875 2.640625 10.765625 6.78125 
Q 7.5625 10.9375 5.734375 17.703125 
Q 3.90625 24.46875 3.90625 34.421875 
Q 3.90625 44.828125 5.734375 51.640625 
Q 7.5625 58.453125 10.78125 62.5 
Q 14.015625 66.546875 18.40625 68.1875 
Q 22.796875 69.828125 27.984375 69.828125 
Q 32.90625 69.828125 37.21875 68.1875 
Q 41.546875 66.546875 44.765625 62.5 
Q 48 58.453125 49.84375 51.640625 
Q 51.703125 44.828125 51.703125 34.421875 
M 42.78125 34.421875 
Q 42.78125 42.625 41.796875 48.0625 
Q 40.828125 53.515625 38.921875 56.765625 
Q 37.015625 60.015625 34.25 61.359375 
Q 31.5 62.703125 27.984375 62.703125 
Q 24.265625 62.703125 21.4375 61.328125 
Q 18.609375 59.96875 16.671875 56.71875 
Q 14.75 53.46875 13.765625 48.015625 
Q 12.796875 42.578125 12.796875 34.421875 
Q 12.796875 26.515625 13.796875 21.09375 
Q 14.796875 15.671875 16.71875 12.375 
Q 18.65625 9.078125 21.4375 7.640625 
Q 24.21875 6.203125 27.78125 6.203125 
Q 31.25 6.203125 34.03125 7.640625 
Q 36.8125 9.078125 38.734375 12.375 
Q 40.671875 15.671875 41.71875 21.09375 
Q 42.78125 26.515625 42.78125 34.421875 
" id="LiberationSans-30"/>
       <path d="M 4.9375 29.6875 
L 4.9375 36.8125 
L 53.515625 36.8125 
L 53.515625 29.6875 
z
" id="LiberationSans-2212"/>
      </defs>
      <g style="fill:#262626;" transform="translate(151.0609375 360.746875)scale(0.1 -0.1)">
       <use xlink:href="#LiberationSans-2212"/>
       <use x="58.3984375" xlink:href="#LiberationSans-32"/>
       <use x="114.013671875" xlink:href="#LiberationSans-2e"/>
       <use x="141.796875" xlink:href="#LiberationSans-30"/>
      </g>
     </g>
    </g>
    <g id="xtick_2">
     <g id="line2d_4">
      <path clip-path="url(#pc175225d0a)" d="M 199.29375 346.5 
L 199.29375 39.6 
" style="fill:none;stroke:#ffffff;stroke-linecap:round;"/>
     </g>
     <g id="line2d_5">
      <g>
       <use style="fill:#262626;stroke:#262626;" x="199.29375" xlink:href="#m41624966e9" y="346.5"/>
      </g>
     </g>
     <g id="line2d_6">
      <g>
       <use style="fill:#262626;stroke:#262626;" x="199.29375" xlink:href="#m41624966e9" y="39.6"/>
      </g>
     </g>
     <g id="text_2">
      <!-- −1.5 -->
      <defs>
       <path d="M 51.421875 22.40625 
Q 51.421875 17.234375 49.859375 12.9375 
Q 48.296875 8.640625 45.21875 5.53125 
Q 42.140625 2.4375 37.578125 0.71875 
Q 33.015625 -0.984375 27 -0.984375 
Q 21.578125 -0.984375 17.546875 0.28125 
Q 13.53125 1.5625 10.734375 3.78125 
Q 7.953125 6 6.3125 8.984375 
Q 4.6875 11.96875 4 15.375 
L 12.890625 16.40625 
Q 13.421875 14.453125 14.390625 12.625 
Q 15.375 10.796875 17.0625 9.34375 
Q 18.75 7.90625 21.21875 7.046875 
Q 23.6875 6.203125 27.203125 6.203125 
Q 30.609375 6.203125 33.390625 7.25 
Q 36.1875 8.296875 38.15625 10.34375 
Q 40.140625 12.40625 41.203125 15.375 
Q 42.28125 18.359375 42.28125 22.21875 
Q 42.28125 25.390625 41.25 28.046875 
Q 40.234375 30.71875 38.328125 32.640625 
Q 36.421875 34.578125 33.65625 35.640625 
Q 30.90625 36.71875 27.390625 36.71875 
Q 25.203125 36.71875 23.34375 36.328125 
Q 21.484375 35.9375 19.890625 35.25 
Q 18.3125 34.578125 17.015625 33.671875 
Q 15.71875 32.765625 14.59375 31.78125 
L 6 31.78125 
L 8.296875 68.796875 
L 47.40625 68.796875 
L 47.40625 61.328125 
L 16.3125 61.328125 
L 14.984375 39.5 
Q 17.328125 41.3125 20.84375 42.59375 
Q 24.359375 43.890625 29.203125 43.890625 
Q 34.328125 43.890625 38.421875 42.328125 
Q 42.53125 40.765625 45.40625 37.90625 
Q 48.296875 35.0625 49.859375 31.109375 
Q 51.421875 27.15625 51.421875 22.40625 
" id="LiberationSans-35"/>
       <path d="M 7.625 0 
L 7.625 7.46875 
L 25.140625 7.46875 
L 25.140625 60.40625 
L 9.625 49.3125 
L 9.625 57.625 
L 25.875 68.796875 
L 33.984375 68.796875 
L 33.984375 7.46875 
L 50.734375 7.46875 
L 50.734375 0 
z
" id="LiberationSans-31"/>
      </defs>
      <g style="fill:#262626;" transform="translate(189.4234375 360.746875)scale(0.1 -0.1)">
       <use xlink:href="#LiberationSans-2212"/>
       <use x="58.3984375" xlink:href="#LiberationSans-31"/>
       <use x="114.013671875" xlink:href="#LiberationSans-2e"/>
       <use x="141.796875" xlink:href="#LiberationSans-35"/>
      </g>
     </g>
    </g>
    <g id="xtick_3">
     <g id="line2d_7">
      <path clip-path="url(#pc175225d0a)" d="M 237.65625 346.5 
L 237.65625 39.6 
" style="fill:none;stroke:#ffffff;stroke-linecap:round;"/>
     </g>
     <g id="line2d_8">
      <g>
       <use style="fill:#262626;stroke:#262626;" x="237.65625" xlink:href="#m41624966e9" y="346.5"/>
      </g>
     </g>
     <g id="line2d_9">
      <g>
       <use style="fill:#262626;stroke:#262626;" x="237.65625" xlink:href="#m41624966e9" y="39.6"/>
      </g>
     </g>
     <g id="text_3">
      <!-- −1.0 -->
      <g style="fill:#262626;" transform="translate(227.7859375 360.746875)scale(0.1 -0.1)">
       <use xlink:href="#LiberationSans-2212"/>
       <use x="58.3984375" xlink:href="#LiberationSans-31"/>
       <use x="114.013671875" xlink:href="#LiberationSans-2e"/>
       <use x="141.796875" xlink:href="#LiberationSans-30"/>
      </g>
     </g>
    </g>
    <g id="xtick_4">
     <g id="line2d_10">
      <path clip-path="url(#pc175225d0a)" d="M 276.01875 346.5 
L 276.01875 39.6 
" style="fill:none;stroke:#ffffff;stroke-linecap:round;"/>
     </g>
     <g id="line2d_11">
      <g>
       <use style="fill:#262626;stroke:#262626;" x="276.01875" xlink:href="#m41624966e9" y="346.5"/>
      </g>
     </g>
     <g id="line2d_12">
      <g>
       <use style="fill:#262626;stroke:#262626;" x="276.01875" xlink:href="#m41624966e9" y="39.6"/>
      </g>
     </g>
     <g id="text_4">
      <!-- −0.5 -->
      <g style="fill:#262626;" transform="translate(266.1484375 360.746875)scale(0.1 -0.1)">
       <use xlink:href="#LiberationSans-2212"/>
       <use x="58.3984375" xlink:href="#LiberationSans-30"/>
       <use x="114.013671875" xlink:href="#LiberationSans-2e"/>
       <use x="141.796875" xlink:href="#LiberationSans-35"/>
      </g>
     </g>
    </g>
    <g id="xtick_5">
     <g id="line2d_13">
      <path clip-path="url(#pc175225d0a)" d="M 314.38125 346.5 
L 314.38125 39.6 
" style="fill:none;stroke:#ffffff;stroke-linecap:round;"/>
     </g>
     <g id="line2d_14">
      <g>
       <use style="fill:#262626;stroke:#262626;" x="314.38125" xlink:href="#m41624966e9" y="346.5"/>
      </g>
     </g>
     <g id="line2d_15">
      <g>
       <use style="fill:#262626;stroke:#262626;" x="314.38125" xlink:href="#m41624966e9" y="39.6"/>
      </g>
     </g>
     <g id="text_5">
      <!-- 0.0 -->
      <g style="fill:#262626;" transform="translate(307.43125 360.746875)scale(0.1 -0.1)">
       <use xlink:href="#LiberationSans-30"/>
       <use x="55.615234375" xlink:href="#LiberationSans-2e"/>
       <use x="83.3984375" xlink:href="#LiberationSans-30"/>
      </g>
     </g>
    </g>
    <g id="xtick_6">
     <g id="line2d_16">
      <path clip-path="url(#pc175225d0a)" d="M 352.74375 346.5 
L 352.74375 39.6 
" style="fill:none;stroke:#ffffff;stroke-linecap:round;"/>
     </g>
     <g id="line2d_17">
      <g>
       <use style="fill:#262626;stroke:#262626;" x="352.74375" xlink:href="#m41624966e9" y="346.5"/>
      </g>
     </g>
     <g id="line2d_18">
      <g>
       <use style="fill:#262626;stroke:#262626;" x="352.74375" xlink:href="#m41624966e9" y="39.6"/>
      </g>
     </g>
     <g id="text_6">
      <!-- 0.5 -->
      <g style="fill:#262626;" transform="translate(345.79375 360.746875)scale(0.1 -0.1)">
       <use xlink:href="#LiberationSans-30"/>
       <use x="55.615234375" xlink:href="#LiberationSans-2e"/>
       <use x="83.3984375" xlink:href="#LiberationSans-35"/>
      </g>
     </g>
    </g>
    <g id="xtick_7">
     <g id="line2d_19">
      <path clip-path="url(#pc175225d0a)" d="M 391.10625 346.5 
L 391.10625 39.6 
" style="fill:none;stroke:#ffffff;stroke-linecap:round;"/>
     </g>
     <g id="line2d_20">
      <g>
       <use style="fill:#262626;stroke:#262626;" x="391.10625" xlink:href="#m41624966e9" y="346.5"/>
      </g>
     </g>
     <g id="line2d_21">
      <g>
       <use style="fill:#262626;stroke:#262626;" x="391.10625" xlink:href="#m41624966e9" y="39.6"/>
      </g>
     </g>
     <g id="text_7">
      <!-- 1.0 -->
      <g style="fill:#262626;" transform="translate(384.15625 360.746875)scale(0.1 -0.1)">
       <use xlink:href="#LiberationSans-31"/>
       <use x="55.615234375" xlink:href="#LiberationSans-2e"/>
       <use x="83.3984375" xlink:href="#LiberationSans-30"/>
      </g>
     </g>
    </g>
    <g id="xtick_8">
     <g id="line2d_22">
      <path clip-path="url(#pc175225d0a)" d="M 429.46875 346.5 
L 429.46875 39.6 
" style="fill:none;stroke:#ffffff;stroke-linecap:round;"/>
     </g>
     <g id="line2d_23">
      <g>
       <use style="fill:#262626;stroke:#262626;" x="429.46875" xlink:href="#m41624966e9" y="346.5"/>
      </g>
     </g>
     <g id="line2d_24">
      <g>
       <use style="fill:#262626;stroke:#262626;" x="429.46875" xlink:href="#m41624966e9" y="39.6"/>
      </g>
     </g>
     <g id="text_8">
      <!-- 1.5 -->
      <g style="fill:#262626;" transform="translate(422.51875 360.746875)scale(0.1 -0.1)">
       <use xlink:href="#LiberationSans-31"/>
       <use x="55.615234375" xlink:href="#LiberationSans-2e"/>
       <use x="83.3984375" xlink:href="#LiberationSans-35"/>
      </g>
     </g>
    </g>
   </g>
   <g id="matplotlib.axis_2">
    <g id="ytick_1">
     <g id="line2d_25">
      <path clip-path="url(#pc175225d0a)" d="M 160.93125 346.5 
L 429.46875 346.5 
" style="fill:none;stroke:#ffffff;stroke-linecap:round;"/>
     </g>
     <g id="line2d_26">
      <g>
       <use style="fill:#262626;stroke:#262626;" x="160.93125" xlink:href="#m41624966e9" y="346.5"/>
      </g>
     </g>
     <g id="line2d_27">
      <g>
       <use style="fill:#262626;stroke:#262626;" x="429.46875" xlink:href="#m41624966e9" y="346.5"/>
      </g>
     </g>
     <g id="text_9">
      <!-- −2.0 -->
      <g style="fill:#262626;" transform="translate(134.190625 349.0859375)scale(0.1 -0.1)">
       <use xlink:href="#LiberationSans-2212"/>
       <use x="58.3984375" xlink:href="#LiberationSans-32"/>
       <use x="114.013671875" xlink:href="#LiberationSans-2e"/>
       <use x="141.796875" xlink:href="#LiberationSans-30"/>
      </g>
     </g>
    </g>
    <g id="ytick_2">
     <g id="line2d_28">
      <path clip-path="url(#pc175225d0a)" d="M 160.93125 308.1375 
L 429.46875 308.1375 
" style="fill:none;stroke:#ffffff;stroke-linecap:round;"/>
     </g>
     <g id="line2d_29">
      <g>
       <use style="fill:#262626;stroke:#262626;" x="160.93125" xlink:href="#m41624966e9" y="308.1375"/>
      </g>
     </g>
     <g id="line2d_30">
      <g>
       <use style="fill:#262626;stroke:#262626;" x="429.46875" xlink:href="#m41624966e9" y="308.1375"/>
      </g>
     </g>
     <g id="text_10">
      <!-- −1.5 -->
      <g style="fill:#262626;" transform="translate(134.190625 310.7234375)scale(0.1 -0.1)">
       <use xlink:href="#LiberationSans-2212"/>
       <use x="58.3984375" xlink:href="#LiberationSans-31"/>
       <use x="114.013671875" xlink:href="#LiberationSans-2e"/>
       <use x="141.796875" xlink:href="#LiberationSans-35"/>
      </g>
     </g>
    </g>
    <g id="ytick_3">
     <g id="line2d_31">
      <path clip-path="url(#pc175225d0a)" d="M 160.93125 269.775 
L 429.46875 269.775 
" style="fill:none;stroke:#ffffff;stroke-linecap:round;"/>
     </g>
     <g id="line2d_32">
      <g>
       <use style="fill:#262626;stroke:#262626;" x="160.93125" xlink:href="#m41624966e9" y="269.775"/>
      </g>
     </g>
     <g id="line2d_33">
      <g>
       <use style="fill:#262626;stroke:#262626;" x="429.46875" xlink:href="#m41624966e9" y="269.775"/>
      </g>
     </g>
     <g id="text_11">
      <!-- −1.0 -->
      <g style="fill:#262626;" transform="translate(134.190625 272.3609375)scale(0.1 -0.1)">
       <use xlink:href="#LiberationSans-2212"/>
       <use x="58.3984375" xlink:href="#LiberationSans-31"/>
       <use x="114.013671875" xlink:href="#LiberationSans-2e"/>
       <use x="141.796875" xlink:href="#LiberationSans-30"/>
      </g>
     </g>
    </g>
    <g id="ytick_4">
     <g id="line2d_34">
      <path clip-path="url(#pc175225d0a)" d="M 160.93125 231.4125 
L 429.46875 231.4125 
" style="fill:none;stroke:#ffffff;stroke-linecap:round;"/>
     </g>
     <g id="line2d_35">
      <g>
       <use style="fill:#262626;stroke:#262626;" x="160.93125" xlink:href="#m41624966e9" y="231.4125"/>
      </g>
     </g>
     <g id="line2d_36">
      <g>
       <use style="fill:#262626;stroke:#262626;" x="429.46875" xlink:href="#m41624966e9" y="231.4125"/>
      </g>
     </g>
     <g id="text_12">
      <!-- −0.5 -->
      <g style="fill:#262626;" transform="translate(134.190625 233.9984375)scale(0.1 -0.1)">
       <use xlink:href="#LiberationSans-2212"/>
       <use x="58.3984375" xlink:href="#LiberationSans-30"/>
       <use x="114.013671875" xlink:href="#LiberationSans-2e"/>
       <use x="141.796875" xlink:href="#LiberationSans-35"/>
      </g>
     </g>
    </g>
    <g id="ytick_5">
     <g id="line2d_37">
      <path clip-path="url(#pc175225d0a)" d="M 160.93125 193.05 
L 429.46875 193.05 
" style="fill:none;stroke:#ffffff;stroke-linecap:round;"/>
     </g>
     <g id="line2d_38">
      <g>
       <use style="fill:#262626;stroke:#262626;" x="160.93125" xlink:href="#m41624966e9" y="193.05"/>
      </g>
     </g>
     <g id="line2d_39">
      <g>
       <use style="fill:#262626;stroke:#262626;" x="429.46875" xlink:href="#m41624966e9" y="193.05"/>
      </g>
     </g>
     <g id="text_13">
      <!-- 0.0 -->
      <g style="fill:#262626;" transform="translate(140.03125 195.6359375)scale(0.1 -0.1)">
       <use xlink:href="#LiberationSans-30"/>
       <use x="55.615234375" xlink:href="#LiberationSans-2e"/>
       <use x="83.3984375" xlink:href="#LiberationSans-30"/>
      </g>
     </g>
    </g>
    <g id="ytick_6">
     <g id="line2d_40">
      <path clip-path="url(#pc175225d0a)" d="M 160.93125 154.6875 
L 429.46875 154.6875 
" style="fill:none;stroke:#ffffff;stroke-linecap:round;"/>
     </g>
     <g id="line2d_41">
      <g>
       <use style="fill:#262626;stroke:#262626;" x="160.93125" xlink:href="#m41624966e9" y="154.6875"/>
      </g>
     </g>
     <g id="line2d_42">
      <g>
       <use style="fill:#262626;stroke:#262626;" x="429.46875" xlink:href="#m41624966e9" y="154.6875"/>
      </g>
     </g>
     <g id="text_14">
      <!-- 0.5 -->
      <g style="fill:#262626;" transform="translate(140.03125 157.2734375)scale(0.1 -0.1)">
       <use xlink:href="#LiberationSans-30"/>
       <use x="55.615234375" xlink:href="#LiberationSans-2e"/>
       <use x="83.3984375" xlink:href="#LiberationSans-35"/>
      </g>
     </g>
    </g>
    <g id="ytick_7">
     <g id="line2d_43">
      <path clip-path="url(#pc175225d0a)" d="M 160.93125 116.325 
L 429.46875 116.325 
" style="fill:none;stroke:#ffffff;stroke-linecap:round;"/>
     </g>
     <g id="line2d_44">
      <g>
       <use style="fill:#262626;stroke:#262626;" x="160.93125" xlink:href="#m41624966e9" y="116.325"/>
      </g>
     </g>
     <g id="line2d_45">
      <g>
       <use style="fill:#262626;stroke:#262626;" x="429.46875" xlink:href="#m41624966e9" y="116.325"/>
      </g>
     </g>
     <g id="text_15">
      <!-- 1.0 -->
      <g style="fill:#262626;" transform="translate(140.03125 118.9109375)scale(0.1 -0.1)">
       <use xlink:href="#LiberationSans-31"/>
       <use x="55.615234375" xlink:href="#LiberationSans-2e"/>
       <use x="83.3984375" xlink:href="#LiberationSans-30"/>
      </g>
     </g>
    </g>
    <g id="ytick_8">
     <g id="line2d_46">
      <path clip-path="url(#pc175225d0a)" d="M 160.93125 77.9625 
L 429.46875 77.9625 
" style="fill:none;stroke:#ffffff;stroke-linecap:round;"/>
     </g>
     <g id="line2d_47">
      <g>
       <use style="fill:#262626;stroke:#262626;" x="160.93125" xlink:href="#m41624966e9" y="77.9625"/>
      </g>
     </g>
     <g id="line2d_48">
      <g>
       <use style="fill:#262626;stroke:#262626;" x="429.46875" xlink:href="#m41624966e9" y="77.9625"/>
      </g>
     </g>
     <g id="text_16">
      <!-- 1.5 -->
      <g style="fill:#262626;" transform="translate(140.03125 80.5484375)scale(0.1 -0.1)">
       <use xlink:href="#LiberationSans-31"/>
       <use x="55.615234375" xlink:href="#LiberationSans-2e"/>
       <use x="83.3984375" xlink:href="#LiberationSans-35"/>
      </g>
     </g>
    </g>
    <g id="ytick_9">
     <g id="line2d_49">
      <path clip-path="url(#pc175225d0a)" d="M 160.93125 39.6 
L 429.46875 39.6 
" style="fill:none;stroke:#ffffff;stroke-linecap:round;"/>
     </g>
     <g id="line2d_50">
      <g>
       <use style="fill:#262626;stroke:#262626;" x="160.93125" xlink:href="#m41624966e9" y="39.6"/>
      </g>
     </g>
     <g id="line2d_51">
      <g>
       <use style="fill:#262626;stroke:#262626;" x="429.46875" xlink:href="#m41624966e9" y="39.6"/>
      </g>
     </g>
     <g id="text_17">
      <!-- 2.0 -->
      <g style="fill:#262626;" transform="translate(140.03125 42.1859375)scale(0.1 -0.1)">
       <use xlink:href="#LiberationSans-32"/>
       <use x="55.615234375" xlink:href="#LiberationSans-2e"/>
       <use x="83.3984375" xlink:href="#LiberationSans-30"/>
      </g>
     </g>
    </g>
   </g>
   <g id="line2d_52">
    <path clip-path="url(#pc175225d0a)" d="M 314.38125 193.05 
L 391.10625 193.05 
M 391.10625 193.05 
L 429.46875 126.60615 
M 429.46875 126.60615 
L 391.10625 60.1623 
M 391.10625 60.1623 
L 314.38125 60.1623 
M 314.38125 60.1623 
L 276.01875 126.60615 
M 276.01875 126.60615 
L 314.38125 193.05 
M 314.38125 193.05 
L 276.01875 126.60615 
M 276.01875 126.60615 
L 199.29375 126.60615 
M 199.29375 126.60615 
L 160.93125 193.05 
M 160.93125 193.05 
L 199.29375 259.49385 
M 199.29375 259.49385 
L 276.01875 259.49385 
M 276.01875 259.49385 
L 314.38125 193.05 
M 314.38125 193.05 
L 276.01875 259.49385 
M 276.01875 259.49385 
L 314.38125 325.9377 
M 314.38125 325.9377 
L 391.10625 325.9377 
M 391.10625 325.9377 
L 429.46875 259.49385 
M 429.46875 259.49385 
L 391.10625 193.05 
M 391.10625 193.05 
L 314.38125 193.05 
" style="fill:none;stroke:#4c72b0;stroke-linecap:round;stroke-width:1.75;"/>
   </g>
   <g id="line2d_53">
    <defs>
     <path d="M 0 2.5 
C 0.663008 2.5 1.29895 2.236584 1.767767 1.767767 
C 2.236584 1.29895 2.5 0.663008 2.5 0 
C 2.5 -0.663008 2.236584 -1.29895 1.767767 -1.767767 
C 1.29895 -2.236584 0.663008 -2.5 0 -2.5 
C -0.663008 -2.5 -1.29895 -2.236584 -1.767767 -1.767767 
C -2.236584 -1.29895 -2.5 -0.663008 -2.5 0 
C -2.5 0.663008 -2.236584 1.29895 -1.767767 1.767767 
C -1.29895 2.236584 -0.663008 2.5 0 2.5 
z
" id="m52de90c24e"/>
    </defs>
    <g clip-path="url(#pc175225d0a)">
     <use style="fill:#55a868;opacity:0.5;" x="352.74375" xlink:href="#m52de90c24e" y="143.2171125"/>
     <use style="fill:#55a868;opacity:0.5;" x="343.153125" xlink:href="#m52de90c24e" y="159.828075"/>
     <use style="fill:#55a868;opacity:0.5;" x="333.5625" xlink:href="#m52de90c24e" y="176.4390375"/>
     <use style="fill:#55a868;opacity:0.5;" x="362.334375" xlink:href="#m52de90c24e" y="159.828075"/>
     <use style="fill:#55a868;opacity:0.5;" x="352.74375" xlink:href="#m52de90c24e" y="176.4390375"/>
     <use style="fill:#55a868;opacity:0.5;" x="371.925" xlink:href="#m52de90c24e" y="176.4390375"/>
     <use style="fill:#55a868;opacity:0.5;" x="367.1296875" xlink:href="#m52de90c24e" y="134.91163125"/>
     <use style="fill:#55a868;opacity:0.5;" x="376.7203125" xlink:href="#m52de90c24e" y="151.52259375"/>
     <use style="fill:#55a868;opacity:0.5;" x="386.3109375" xlink:href="#m52de90c24e" y="168.13355625"/>
     <use style="fill:#55a868;opacity:0.5;" x="386.3109375" xlink:href="#m52de90c24e" y="134.91163125"/>
     <use style="fill:#55a868;opacity:0.5;" x="395.9015625" xlink:href="#m52de90c24e" y="151.52259375"/>
     <use style="fill:#55a868;opacity:0.5;" x="405.4921875" xlink:href="#m52de90c24e" y="134.91163125"/>
     <use style="fill:#55a868;opacity:0.5;" x="367.1296875" xlink:href="#m52de90c24e" y="118.30066875"/>
     <use style="fill:#55a868;opacity:0.5;" x="386.3109375" xlink:href="#m52de90c24e" y="118.30066875"/>
     <use style="fill:#55a868;opacity:0.5;" x="405.4921875" xlink:href="#m52de90c24e" y="118.30066875"/>
     <use style="fill:#55a868;opacity:0.5;" x="376.7203125" xlink:href="#m52de90c24e" y="101.68970625"/>
     <use style="fill:#55a868;opacity:0.5;" x="395.9015625" xlink:href="#m52de90c24e" y="101.68970625"/>
     <use style="fill:#55a868;opacity:0.5;" x="386.3109375" xlink:href="#m52de90c24e" y="85.07874375"/>
     <use style="fill:#55a868;opacity:0.5;" x="352.74375" xlink:href="#m52de90c24e" y="109.9951875"/>
     <use style="fill:#55a868;opacity:0.5;" x="362.334375" xlink:href="#m52de90c24e" y="93.384225"/>
     <use style="fill:#55a868;opacity:0.5;" x="371.925" xlink:href="#m52de90c24e" y="76.7732625"/>
     <use style="fill:#55a868;opacity:0.5;" x="343.153125" xlink:href="#m52de90c24e" y="93.384225"/>
     <use style="fill:#55a868;opacity:0.5;" x="352.74375" xlink:href="#m52de90c24e" y="76.7732625"/>
     <use style="fill:#55a868;opacity:0.5;" x="333.5625" xlink:href="#m52de90c24e" y="76.7732625"/>
     <use style="fill:#55a868;opacity:0.5;" x="338.3578125" xlink:href="#m52de90c24e" y="118.30066875"/>
     <use style="fill:#55a868;opacity:0.5;" x="328.7671875" xlink:href="#m52de90c24e" y="101.68970625"/>
     <use style="fill:#55a868;opacity:0.5;" x="319.1765625" xlink:href="#m52de90c24e" y="85.07874375"/>
     <use style="fill:#55a868;opacity:0.5;" x="319.1765625" xlink:href="#m52de90c24e" y="118.30066875"/>
     <use style="fill:#55a868;opacity:0.5;" x="309.5859375" xlink:href="#m52de90c24e" y="101.68970625"/>
     <use style="fill:#55a868;opacity:0.5;" x="299.9953125" xlink:href="#m52de90c24e" y="118.30066875"/>
     <use style="fill:#55a868;opacity:0.5;" x="338.3578125" xlink:href="#m52de90c24e" y="134.91163125"/>
     <use style="fill:#55a868;opacity:0.5;" x="319.1765625" xlink:href="#m52de90c24e" y="134.91163125"/>
     <use style="fill:#55a868;opacity:0.5;" x="299.9953125" xlink:href="#m52de90c24e" y="134.91163125"/>
     <use style="fill:#55a868;opacity:0.5;" x="328.7671875" xlink:href="#m52de90c24e" y="151.52259375"/>
     <use style="fill:#55a868;opacity:0.5;" x="309.5859375" xlink:href="#m52de90c24e" y="151.52259375"/>
     <use style="fill:#55a868;opacity:0.5;" x="319.1765625" xlink:href="#m52de90c24e" y="168.13355625"/>
     <use style="fill:#55a868;opacity:0.5;" x="252.0421875" xlink:href="#m52de90c24e" y="184.74451875"/>
     <use style="fill:#55a868;opacity:0.5;" x="271.2234375" xlink:href="#m52de90c24e" y="184.74451875"/>
     <use style="fill:#55a868;opacity:0.5;" x="290.4046875" xlink:href="#m52de90c24e" y="184.74451875"/>
     <use style="fill:#55a868;opacity:0.5;" x="261.6328125" xlink:href="#m52de90c24e" y="168.13355625"/>
     <use style="fill:#55a868;opacity:0.5;" x="280.8140625" xlink:href="#m52de90c24e" y="168.13355625"/>
     <use style="fill:#55a868;opacity:0.5;" x="271.2234375" xlink:href="#m52de90c24e" y="151.52259375"/>
     <use style="fill:#55a868;opacity:0.5;" x="237.65625" xlink:href="#m52de90c24e" y="176.4390375"/>
     <use style="fill:#55a868;opacity:0.5;" x="247.246875" xlink:href="#m52de90c24e" y="159.828075"/>
     <use style="fill:#55a868;opacity:0.5;" x="256.8375" xlink:href="#m52de90c24e" y="143.2171125"/>
     <use style="fill:#55a868;opacity:0.5;" x="228.065625" xlink:href="#m52de90c24e" y="159.828075"/>
     <use style="fill:#55a868;opacity:0.5;" x="237.65625" xlink:href="#m52de90c24e" y="143.2171125"/>
     <use style="fill:#55a868;opacity:0.5;" x="218.475" xlink:href="#m52de90c24e" y="143.2171125"/>
     <use style="fill:#55a868;opacity:0.5;" x="223.2703125" xlink:href="#m52de90c24e" y="184.74451875"/>
     <use style="fill:#55a868;opacity:0.5;" x="213.6796875" xlink:href="#m52de90c24e" y="168.13355625"/>
     <use style="fill:#55a868;opacity:0.5;" x="204.0890625" xlink:href="#m52de90c24e" y="151.52259375"/>
     <use style="fill:#55a868;opacity:0.5;" x="204.0890625" xlink:href="#m52de90c24e" y="184.74451875"/>
     <use style="fill:#55a868;opacity:0.5;" x="194.4984375" xlink:href="#m52de90c24e" y="168.13355625"/>
     <use style="fill:#55a868;opacity:0.5;" x="184.9078125" xlink:href="#m52de90c24e" y="184.74451875"/>
     <use style="fill:#55a868;opacity:0.5;" x="223.2703125" xlink:href="#m52de90c24e" y="201.35548125"/>
     <use style="fill:#55a868;opacity:0.5;" x="204.0890625" xlink:href="#m52de90c24e" y="201.35548125"/>
     <use style="fill:#55a868;opacity:0.5;" x="184.9078125" xlink:href="#m52de90c24e" y="201.35548125"/>
     <use style="fill:#55a868;opacity:0.5;" x="213.6796875" xlink:href="#m52de90c24e" y="217.96644375"/>
     <use style="fill:#55a868;opacity:0.5;" x="194.4984375" xlink:href="#m52de90c24e" y="217.96644375"/>
     <use style="fill:#55a868;opacity:0.5;" x="204.0890625" xlink:href="#m52de90c24e" y="234.57740625"/>
     <use style="fill:#55a868;opacity:0.5;" x="237.65625" xlink:href="#m52de90c24e" y="209.6609625"/>
     <use style="fill:#55a868;opacity:0.5;" x="228.065625" xlink:href="#m52de90c24e" y="226.271925"/>
     <use style="fill:#55a868;opacity:0.5;" x="218.475" xlink:href="#m52de90c24e" y="242.8828875"/>
     <use style="fill:#55a868;opacity:0.5;" x="247.246875" xlink:href="#m52de90c24e" y="226.271925"/>
     <use style="fill:#55a868;opacity:0.5;" x="237.65625" xlink:href="#m52de90c24e" y="242.8828875"/>
     <use style="fill:#55a868;opacity:0.5;" x="256.8375" xlink:href="#m52de90c24e" y="242.8828875"/>
     <use style="fill:#55a868;opacity:0.5;" x="252.0421875" xlink:href="#m52de90c24e" y="201.35548125"/>
     <use style="fill:#55a868;opacity:0.5;" x="261.6328125" xlink:href="#m52de90c24e" y="217.96644375"/>
     <use style="fill:#55a868;opacity:0.5;" x="271.2234375" xlink:href="#m52de90c24e" y="234.57740625"/>
     <use style="fill:#55a868;opacity:0.5;" x="271.2234375" xlink:href="#m52de90c24e" y="201.35548125"/>
     <use style="fill:#55a868;opacity:0.5;" x="280.8140625" xlink:href="#m52de90c24e" y="217.96644375"/>
     <use style="fill:#55a868;opacity:0.5;" x="290.4046875" xlink:href="#m52de90c24e" y="201.35548125"/>
     <use style="fill:#55a868;opacity:0.5;" x="338.3578125" xlink:href="#m52de90c24e" y="251.18836875"/>
     <use style="fill:#55a868;opacity:0.5;" x="328.7671875" xlink:href="#m52de90c24e" y="234.57740625"/>
     <use style="fill:#55a868;opacity:0.5;" x="319.1765625" xlink:href="#m52de90c24e" y="217.96644375"/>
     <use style="fill:#55a868;opacity:0.5;" x="319.1765625" xlink:href="#m52de90c24e" y="251.18836875"/>
     <use style="fill:#55a868;opacity:0.5;" x="309.5859375" xlink:href="#m52de90c24e" y="234.57740625"/>
     <use style="fill:#55a868;opacity:0.5;" x="299.9953125" xlink:href="#m52de90c24e" y="251.18836875"/>
     <use style="fill:#55a868;opacity:0.5;" x="338.3578125" xlink:href="#m52de90c24e" y="267.79933125"/>
     <use style="fill:#55a868;opacity:0.5;" x="319.1765625" xlink:href="#m52de90c24e" y="267.79933125"/>
     <use style="fill:#55a868;opacity:0.5;" x="299.9953125" xlink:href="#m52de90c24e" y="267.79933125"/>
     <use style="fill:#55a868;opacity:0.5;" x="328.7671875" xlink:href="#m52de90c24e" y="284.41029375"/>
     <use style="fill:#55a868;opacity:0.5;" x="309.5859375" xlink:href="#m52de90c24e" y="284.41029375"/>
     <use style="fill:#55a868;opacity:0.5;" x="319.1765625" xlink:href="#m52de90c24e" y="301.02125625"/>
     <use style="fill:#55a868;opacity:0.5;" x="352.74375" xlink:href="#m52de90c24e" y="276.1048125"/>
     <use style="fill:#55a868;opacity:0.5;" x="343.153125" xlink:href="#m52de90c24e" y="292.715775"/>
     <use style="fill:#55a868;opacity:0.5;" x="333.5625" xlink:href="#m52de90c24e" y="309.3267375"/>
     <use style="fill:#55a868;opacity:0.5;" x="362.334375" xlink:href="#m52de90c24e" y="292.715775"/>
     <use style="fill:#55a868;opacity:0.5;" x="352.74375" xlink:href="#m52de90c24e" y="309.3267375"/>
     <use style="fill:#55a868;opacity:0.5;" x="371.925" xlink:href="#m52de90c24e" y="309.3267375"/>
     <use style="fill:#55a868;opacity:0.5;" x="367.1296875" xlink:href="#m52de90c24e" y="267.79933125"/>
     <use style="fill:#55a868;opacity:0.5;" x="376.7203125" xlink:href="#m52de90c24e" y="284.41029375"/>
     <use style="fill:#55a868;opacity:0.5;" x="386.3109375" xlink:href="#m52de90c24e" y="301.02125625"/>
     <use style="fill:#55a868;opacity:0.5;" x="386.3109375" xlink:href="#m52de90c24e" y="267.79933125"/>
     <use style="fill:#55a868;opacity:0.5;" x="395.9015625" xlink:href="#m52de90c24e" y="284.41029375"/>
     <use style="fill:#55a868;opacity:0.5;" x="405.4921875" xlink:href="#m52de90c24e" y="267.79933125"/>
     <use style="fill:#55a868;opacity:0.5;" x="367.1296875" xlink:href="#m52de90c24e" y="251.18836875"/>
     <use style="fill:#55a868;opacity:0.5;" x="386.3109375" xlink:href="#m52de90c24e" y="251.18836875"/>
     <use style="fill:#55a868;opacity:0.5;" x="405.4921875" xlink:href="#m52de90c24e" y="251.18836875"/>
     <use style="fill:#55a868;opacity:0.5;" x="376.7203125" xlink:href="#m52de90c24e" y="234.57740625"/>
     <use style="fill:#55a868;opacity:0.5;" x="395.9015625" xlink:href="#m52de90c24e" y="234.57740625"/>
     <use style="fill:#55a868;opacity:0.5;" x="386.3109375" xlink:href="#m52de90c24e" y="217.96644375"/>
     <use style="fill:#55a868;opacity:0.5;" x="352.74375" xlink:href="#m52de90c24e" y="242.8828875"/>
     <use style="fill:#55a868;opacity:0.5;" x="362.334375" xlink:href="#m52de90c24e" y="226.271925"/>
     <use style="fill:#55a868;opacity:0.5;" x="371.925" xlink:href="#m52de90c24e" y="209.6609625"/>
     <use style="fill:#55a868;opacity:0.5;" x="343.153125" xlink:href="#m52de90c24e" y="226.271925"/>
     <use style="fill:#55a868;opacity:0.5;" x="352.74375" xlink:href="#m52de90c24e" y="209.6609625"/>
     <use style="fill:#55a868;opacity:0.5;" x="333.5625" xlink:href="#m52de90c24e" y="209.6609625"/>
    </g>
   </g>
   <g id="line2d_54">
    <defs>
     <path d="M 0 5 
C 1.326016 5 2.597899 4.473168 3.535534 3.535534 
C 4.473168 2.597899 5 1.326016 5 0 
C 5 -1.326016 4.473168 -2.597899 3.535534 -3.535534 
C 2.597899 -4.473168 1.326016 -5 0 -5 
C -1.326016 -5 -2.597899 -4.473168 -3.535534 -3.535534 
C -4.473168 -2.597899 -5 -1.326016 -5 0 
C -5 1.326016 -4.473168 2.597899 -3.535534 3.535534 
C -2.597899 4.473168 -1.326016 5 0 5 
z
" id="mfdeefec960"/>
    </defs>
    <g clip-path="url(#pc175225d0a)">
     <use style="fill:#ff0000;opacity:0.2;" x="347.9484375" xlink:href="#mfdeefec960" y="134.91163125"/>
     <use style="fill:#ff0000;opacity:0.2;" x="338.3578125" xlink:href="#mfdeefec960" y="151.52259375"/>
     <use style="fill:#ff0000;opacity:0.2;" x="328.7671875" xlink:href="#mfdeefec960" y="168.13355625"/>
     <use style="fill:#ff0000;opacity:0.2;" x="319.1765625" xlink:href="#mfdeefec960" y="184.74451875"/>
     <use style="fill:#ff0000;opacity:0.2;" x="357.5390625" xlink:href="#mfdeefec960" y="134.91163125"/>
     <use style="fill:#ff0000;opacity:0.2;" x="367.1296875" xlink:href="#mfdeefec960" y="151.52259375"/>
     <use style="fill:#ff0000;opacity:0.2;" x="376.7203125" xlink:href="#mfdeefec960" y="168.13355625"/>
     <use style="fill:#ff0000;opacity:0.2;" x="386.3109375" xlink:href="#mfdeefec960" y="184.74451875"/>
     <use style="fill:#ff0000;opacity:0.2;" x="362.334375" xlink:href="#mfdeefec960" y="126.60615"/>
     <use style="fill:#ff0000;opacity:0.2;" x="381.515625" xlink:href="#mfdeefec960" y="126.60615"/>
     <use style="fill:#ff0000;opacity:0.2;" x="400.696875" xlink:href="#mfdeefec960" y="126.60615"/>
     <use style="fill:#ff0000;opacity:0.2;" x="419.878125" xlink:href="#mfdeefec960" y="126.60615"/>
     <use style="fill:#ff0000;opacity:0.2;" x="357.5390625" xlink:href="#mfdeefec960" y="118.30066875"/>
     <use style="fill:#ff0000;opacity:0.2;" x="367.1296875" xlink:href="#mfdeefec960" y="101.68970625"/>
     <use style="fill:#ff0000;opacity:0.2;" x="376.7203125" xlink:href="#mfdeefec960" y="85.07874375"/>
     <use style="fill:#ff0000;opacity:0.2;" x="386.3109375" xlink:href="#mfdeefec960" y="68.46778125"/>
     <use style="fill:#ff0000;opacity:0.2;" x="347.9484375" xlink:href="#mfdeefec960" y="118.30066875"/>
     <use style="fill:#ff0000;opacity:0.2;" x="338.3578125" xlink:href="#mfdeefec960" y="101.68970625"/>
     <use style="fill:#ff0000;opacity:0.2;" x="328.7671875" xlink:href="#mfdeefec960" y="85.07874375"/>
     <use style="fill:#ff0000;opacity:0.2;" x="319.1765625" xlink:href="#mfdeefec960" y="68.46778125"/>
     <use style="fill:#ff0000;opacity:0.2;" x="343.153125" xlink:href="#mfdeefec960" y="126.60615"/>
     <use style="fill:#ff0000;opacity:0.2;" x="323.971875" xlink:href="#mfdeefec960" y="126.60615"/>
     <use style="fill:#ff0000;opacity:0.2;" x="304.790625" xlink:href="#mfdeefec960" y="126.60615"/>
     <use style="fill:#ff0000;opacity:0.2;" x="285.609375" xlink:href="#mfdeefec960" y="126.60615"/>
     <use style="fill:#ff0000;opacity:0.2;" x="247.246875" xlink:href="#mfdeefec960" y="193.05"/>
     <use style="fill:#ff0000;opacity:0.2;" x="266.428125" xlink:href="#mfdeefec960" y="193.05"/>
     <use style="fill:#ff0000;opacity:0.2;" x="285.609375" xlink:href="#mfdeefec960" y="193.05"/>
     <use style="fill:#ff0000;opacity:0.2;" x="304.790625" xlink:href="#mfdeefec960" y="193.05"/>
     <use style="fill:#ff0000;opacity:0.2;" x="242.4515625" xlink:href="#mfdeefec960" y="184.74451875"/>
     <use style="fill:#ff0000;opacity:0.2;" x="252.0421875" xlink:href="#mfdeefec960" y="168.13355625"/>
     <use style="fill:#ff0000;opacity:0.2;" x="261.6328125" xlink:href="#mfdeefec960" y="151.52259375"/>
     <use style="fill:#ff0000;opacity:0.2;" x="271.2234375" xlink:href="#mfdeefec960" y="134.91163125"/>
     <use style="fill:#ff0000;opacity:0.2;" x="232.8609375" xlink:href="#mfdeefec960" y="184.74451875"/>
     <use style="fill:#ff0000;opacity:0.2;" x="223.2703125" xlink:href="#mfdeefec960" y="168.13355625"/>
     <use style="fill:#ff0000;opacity:0.2;" x="213.6796875" xlink:href="#mfdeefec960" y="151.52259375"/>
     <use style="fill:#ff0000;opacity:0.2;" x="204.0890625" xlink:href="#mfdeefec960" y="134.91163125"/>
     <use style="fill:#ff0000;opacity:0.2;" x="228.065625" xlink:href="#mfdeefec960" y="193.05"/>
     <use style="fill:#ff0000;opacity:0.2;" x="208.884375" xlink:href="#mfdeefec960" y="193.05"/>
     <use style="fill:#ff0000;opacity:0.2;" x="189.703125" xlink:href="#mfdeefec960" y="193.05"/>
     <use style="fill:#ff0000;opacity:0.2;" x="170.521875" xlink:href="#mfdeefec960" y="193.05"/>
     <use style="fill:#ff0000;opacity:0.2;" x="232.8609375" xlink:href="#mfdeefec960" y="201.35548125"/>
     <use style="fill:#ff0000;opacity:0.2;" x="223.2703125" xlink:href="#mfdeefec960" y="217.96644375"/>
     <use style="fill:#ff0000;opacity:0.2;" x="213.6796875" xlink:href="#mfdeefec960" y="234.57740625"/>
     <use style="fill:#ff0000;opacity:0.2;" x="204.0890625" xlink:href="#mfdeefec960" y="251.18836875"/>
     <use style="fill:#ff0000;opacity:0.2;" x="242.4515625" xlink:href="#mfdeefec960" y="201.35548125"/>
     <use style="fill:#ff0000;opacity:0.2;" x="252.0421875" xlink:href="#mfdeefec960" y="217.96644375"/>
     <use style="fill:#ff0000;opacity:0.2;" x="261.6328125" xlink:href="#mfdeefec960" y="234.57740625"/>
     <use style="fill:#ff0000;opacity:0.2;" x="271.2234375" xlink:href="#mfdeefec960" y="251.18836875"/>
     <use style="fill:#ff0000;opacity:0.2;" x="347.9484375" xlink:href="#mfdeefec960" y="251.18836875"/>
     <use style="fill:#ff0000;opacity:0.2;" x="338.3578125" xlink:href="#mfdeefec960" y="234.57740625"/>
     <use style="fill:#ff0000;opacity:0.2;" x="328.7671875" xlink:href="#mfdeefec960" y="217.96644375"/>
     <use style="fill:#ff0000;opacity:0.2;" x="319.1765625" xlink:href="#mfdeefec960" y="201.35548125"/>
     <use style="fill:#ff0000;opacity:0.2;" x="343.153125" xlink:href="#mfdeefec960" y="259.49385"/>
     <use style="fill:#ff0000;opacity:0.2;" x="323.971875" xlink:href="#mfdeefec960" y="259.49385"/>
     <use style="fill:#ff0000;opacity:0.2;" x="304.790625" xlink:href="#mfdeefec960" y="259.49385"/>
     <use style="fill:#ff0000;opacity:0.2;" x="285.609375" xlink:href="#mfdeefec960" y="259.49385"/>
     <use style="fill:#ff0000;opacity:0.2;" x="347.9484375" xlink:href="#mfdeefec960" y="267.79933125"/>
     <use style="fill:#ff0000;opacity:0.2;" x="338.3578125" xlink:href="#mfdeefec960" y="284.41029375"/>
     <use style="fill:#ff0000;opacity:0.2;" x="328.7671875" xlink:href="#mfdeefec960" y="301.02125625"/>
     <use style="fill:#ff0000;opacity:0.2;" x="319.1765625" xlink:href="#mfdeefec960" y="317.63221875"/>
     <use style="fill:#ff0000;opacity:0.2;" x="357.5390625" xlink:href="#mfdeefec960" y="267.79933125"/>
     <use style="fill:#ff0000;opacity:0.2;" x="367.1296875" xlink:href="#mfdeefec960" y="284.41029375"/>
     <use style="fill:#ff0000;opacity:0.2;" x="376.7203125" xlink:href="#mfdeefec960" y="301.02125625"/>
     <use style="fill:#ff0000;opacity:0.2;" x="386.3109375" xlink:href="#mfdeefec960" y="317.63221875"/>
     <use style="fill:#ff0000;opacity:0.2;" x="362.334375" xlink:href="#mfdeefec960" y="259.49385"/>
     <use style="fill:#ff0000;opacity:0.2;" x="381.515625" xlink:href="#mfdeefec960" y="259.49385"/>
     <use style="fill:#ff0000;opacity:0.2;" x="400.696875" xlink:href="#mfdeefec960" y="259.49385"/>
     <use style="fill:#ff0000;opacity:0.2;" x="419.878125" xlink:href="#mfdeefec960" y="259.49385"/>
     <use style="fill:#ff0000;opacity:0.2;" x="357.5390625" xlink:href="#mfdeefec960" y="251.18836875"/>
     <use style="fill:#ff0000;opacity:0.2;" x="367.1296875" xlink:href="#mfdeefec960" y="234.57740625"/>
     <use style="fill:#ff0000;opacity:0.2;" x="376.7203125" xlink:href="#mfdeefec960" y="217.96644375"/>
     <use style="fill:#ff0000;opacity:0.2;" x="386.3109375" xlink:href="#mfdeefec960" y="201.35548125"/>
    </g>
   </g>
   <g id="patch_3">
    <path d="M 429.46875 346.5 
L 429.46875 39.6 
" style="fill:none;"/>
   </g>
   <g id="patch_4">
    <path d="M 160.93125 346.5 
L 160.93125 39.6 
" style="fill:none;"/>
   </g>
   <g id="patch_5">
    <path d="M 160.93125 346.5 
L 429.46875 346.5 
" style="fill:none;"/>
   </g>
   <g id="patch_6">
    <path d="M 160.93125 39.6 
L 429.46875 39.6 
" style="fill:none;"/>
   </g>
  </g>
 </g>
 <defs>
  <clipPath id="pc175225d0a">
   <rect height="306.9" width="268.5375" x="160.93125" y="39.6"/>
  </clipPath>
 </defs>
</svg>
