<?xml version="1.0" encoding="utf-8" standalone="no"?>
<!DOCTYPE svg PUBLIC "-//W3C//DTD SVG 1.1//EN"
  "http://www.w3.org/Graphics/SVG/1.1/DTD/svg11.dtd">
<!-- Created with matplotlib (http://matplotlib.org/) -->
<svg height="288pt" version="1.1" viewBox="0 0 432 288" width="432pt" xmlns="http://www.w3.org/2000/svg" xmlns:xlink="http://www.w3.org/1999/xlink">
 <defs>
  <style type="text/css">
*{stroke-linecap:butt;stroke-linejoin:round;}
  </style>
 </defs>
 <g id="figure_1">
  <g id="patch_1">
   <path d="M 0 288 
L 432 288 
L 432 0 
L 0 0 
z
" style="fill:#ffffff;"/>
  </g>
  <g id="axes_1">
   <g id="patch_2">
    <path d="M 111.550115 252 
L 331.249885 252 
L 331.249885 34.56 
L 111.550115 34.56 
z
" style="fill:#ffffff;"/>
   </g>
   <g id="matplotlib.axis_1">
    <g id="xtick_1">
     <g id="line2d_1">
      <defs>
       <path d="M 0 0 
L 0 3.5 
" id="m9167df7cb1" style="stroke:#000000;stroke-width:0.8;"/>
      </defs>
      <g>
       <use style="stroke:#000000;stroke-width:0.8;" x="121.536469" xlink:href="#m9167df7cb1" y="252"/>
      </g>
     </g>
     <g id="text_1">
      <!-- −2 -->
      <defs>
       <path d="M 10.59375 35.5 
L 73.1875 35.5 
L 73.1875 27.203125 
L 10.59375 27.203125 
z
" id="DejaVuSans-2212"/>
       <path d="M 19.1875 8.296875 
L 53.609375 8.296875 
L 53.609375 0 
L 7.328125 0 
L 7.328125 8.296875 
Q 12.9375 14.109375 22.625 23.890625 
Q 32.328125 33.6875 34.8125 36.53125 
Q 39.546875 41.84375 41.421875 45.53125 
Q 43.3125 49.21875 43.3125 52.78125 
Q 43.3125 58.59375 39.234375 62.25 
Q 35.15625 65.921875 28.609375 65.921875 
Q 23.96875 65.921875 18.8125 64.3125 
Q 13.671875 62.703125 7.8125 59.421875 
L 7.8125 69.390625 
Q 13.765625 71.78125 18.9375 73 
Q 24.125 74.21875 28.421875 74.21875 
Q 39.75 74.21875 46.484375 68.546875 
Q 53.21875 62.890625 53.21875 53.421875 
Q 53.21875 48.921875 51.53125 44.890625 
Q 49.859375 40.875 45.40625 35.40625 
Q 44.1875 33.984375 37.640625 27.21875 
Q 31.109375 20.453125 19.1875 8.296875 
z
" id="DejaVuSans-32"/>
      </defs>
      <g transform="translate(114.165375 266.598437)scale(0.1 -0.1)">
       <use xlink:href="#DejaVuSans-2212"/>
       <use x="83.789062" xlink:href="#DejaVuSans-32"/>
      </g>
     </g>
    </g>
    <g id="xtick_2">
     <g id="line2d_2">
      <g>
       <use style="stroke:#000000;stroke-width:0.8;" x="178.601344" xlink:href="#m9167df7cb1" y="252"/>
      </g>
     </g>
     <g id="text_2">
      <!-- −1 -->
      <defs>
       <path d="M 12.40625 8.296875 
L 28.515625 8.296875 
L 28.515625 63.921875 
L 10.984375 60.40625 
L 10.984375 69.390625 
L 28.421875 72.90625 
L 38.28125 72.90625 
L 38.28125 8.296875 
L 54.390625 8.296875 
L 54.390625 0 
L 12.40625 0 
z
" id="DejaVuSans-31"/>
      </defs>
      <g transform="translate(171.23025 266.598437)scale(0.1 -0.1)">
       <use xlink:href="#DejaVuSans-2212"/>
       <use x="83.789062" xlink:href="#DejaVuSans-31"/>
      </g>
     </g>
    </g>
    <g id="xtick_3">
     <g id="line2d_3">
      <g>
       <use style="stroke:#000000;stroke-width:0.8;" x="235.666219" xlink:href="#m9167df7cb1" y="252"/>
      </g>
     </g>
     <g id="text_3">
      <!-- 0 -->
      <defs>
       <path d="M 31.78125 66.40625 
Q 24.171875 66.40625 20.328125 58.90625 
Q 16.5 51.421875 16.5 36.375 
Q 16.5 21.390625 20.328125 13.890625 
Q 24.171875 6.390625 31.78125 6.390625 
Q 39.453125 6.390625 43.28125 13.890625 
Q 47.125 21.390625 47.125 36.375 
Q 47.125 51.421875 43.28125 58.90625 
Q 39.453125 66.40625 31.78125 66.40625 
z
M 31.78125 74.21875 
Q 44.046875 74.21875 50.515625 64.515625 
Q 56.984375 54.828125 56.984375 36.375 
Q 56.984375 17.96875 50.515625 8.265625 
Q 44.046875 -1.421875 31.78125 -1.421875 
Q 19.53125 -1.421875 13.0625 8.265625 
Q 6.59375 17.96875 6.59375 36.375 
Q 6.59375 54.828125 13.0625 64.515625 
Q 19.53125 74.21875 31.78125 74.21875 
z
" id="DejaVuSans-30"/>
      </defs>
      <g transform="translate(232.484969 266.598437)scale(0.1 -0.1)">
       <use xlink:href="#DejaVuSans-30"/>
      </g>
     </g>
    </g>
    <g id="xtick_4">
     <g id="line2d_4">
      <g>
       <use style="stroke:#000000;stroke-width:0.8;" x="292.731094" xlink:href="#m9167df7cb1" y="252"/>
      </g>
     </g>
     <g id="text_4">
      <!-- 1 -->
      <g transform="translate(289.549844 266.598437)scale(0.1 -0.1)">
       <use xlink:href="#DejaVuSans-31"/>
      </g>
     </g>
    </g>
   </g>
   <g id="matplotlib.axis_2">
    <g id="ytick_1">
     <g id="line2d_5">
      <defs>
       <path d="M 0 0 
L -3.5 0 
" id="mebf4b52d12" style="stroke:#000000;stroke-width:0.8;"/>
      </defs>
      <g>
       <use style="stroke:#000000;stroke-width:0.8;" x="111.550115" xlink:href="#mebf4b52d12" y="228.877313"/>
      </g>
     </g>
     <g id="text_5">
      <!-- −1.5 -->
      <defs>
       <path d="M 10.6875 12.40625 
L 21 12.40625 
L 21 0 
L 10.6875 0 
z
" id="DejaVuSans-2e"/>
       <path d="M 10.796875 72.90625 
L 49.515625 72.90625 
L 49.515625 64.59375 
L 19.828125 64.59375 
L 19.828125 46.734375 
Q 21.96875 47.46875 24.109375 47.828125 
Q 26.265625 48.1875 28.421875 48.1875 
Q 40.625 48.1875 47.75 41.5 
Q 54.890625 34.8125 54.890625 23.390625 
Q 54.890625 11.625 47.5625 5.09375 
Q 40.234375 -1.421875 26.90625 -1.421875 
Q 22.3125 -1.421875 17.546875 -0.640625 
Q 12.796875 0.140625 7.71875 1.703125 
L 7.71875 11.625 
Q 12.109375 9.234375 16.796875 8.0625 
Q 21.484375 6.890625 26.703125 6.890625 
Q 35.15625 6.890625 40.078125 11.328125 
Q 45.015625 15.765625 45.015625 23.390625 
Q 45.015625 31 40.078125 35.4375 
Q 35.15625 39.890625 26.703125 39.890625 
Q 22.75 39.890625 18.8125 39.015625 
Q 14.890625 38.140625 10.796875 36.28125 
z
" id="DejaVuSans-35"/>
      </defs>
      <g transform="translate(80.267303 232.676531)scale(0.1 -0.1)">
       <use xlink:href="#DejaVuSans-2212"/>
       <use x="83.789062" xlink:href="#DejaVuSans-31"/>
       <use x="147.412109" xlink:href="#DejaVuSans-2e"/>
       <use x="179.199219" xlink:href="#DejaVuSans-35"/>
      </g>
     </g>
    </g>
    <g id="ytick_2">
     <g id="line2d_6">
      <g>
       <use style="stroke:#000000;stroke-width:0.8;" x="111.550115" xlink:href="#mebf4b52d12" y="200.344875"/>
      </g>
     </g>
     <g id="text_6">
      <!-- −1.0 -->
      <g transform="translate(80.267303 204.144094)scale(0.1 -0.1)">
       <use xlink:href="#DejaVuSans-2212"/>
       <use x="83.789062" xlink:href="#DejaVuSans-31"/>
       <use x="147.412109" xlink:href="#DejaVuSans-2e"/>
       <use x="179.199219" xlink:href="#DejaVuSans-30"/>
      </g>
     </g>
    </g>
    <g id="ytick_3">
     <g id="line2d_7">
      <g>
       <use style="stroke:#000000;stroke-width:0.8;" x="111.550115" xlink:href="#mebf4b52d12" y="171.812438"/>
      </g>
     </g>
     <g id="text_7">
      <!-- −0.5 -->
      <g transform="translate(80.267303 175.611656)scale(0.1 -0.1)">
       <use xlink:href="#DejaVuSans-2212"/>
       <use x="83.789062" xlink:href="#DejaVuSans-30"/>
       <use x="147.412109" xlink:href="#DejaVuSans-2e"/>
       <use x="179.199219" xlink:href="#DejaVuSans-35"/>
      </g>
     </g>
    </g>
    <g id="ytick_4">
     <g id="line2d_8">
      <g>
       <use style="stroke:#000000;stroke-width:0.8;" x="111.550115" xlink:href="#mebf4b52d12" y="143.28"/>
      </g>
     </g>
     <g id="text_8">
      <!-- 0.0 -->
      <g transform="translate(88.64699 147.079219)scale(0.1 -0.1)">
       <use xlink:href="#DejaVuSans-30"/>
       <use x="63.623047" xlink:href="#DejaVuSans-2e"/>
       <use x="95.410156" xlink:href="#DejaVuSans-30"/>
      </g>
     </g>
    </g>
    <g id="ytick_5">
     <g id="line2d_9">
      <g>
       <use style="stroke:#000000;stroke-width:0.8;" x="111.550115" xlink:href="#mebf4b52d12" y="114.747562"/>
      </g>
     </g>
     <g id="text_9">
      <!-- 0.5 -->
      <g transform="translate(88.64699 118.546781)scale(0.1 -0.1)">
       <use xlink:href="#DejaVuSans-30"/>
       <use x="63.623047" xlink:href="#DejaVuSans-2e"/>
       <use x="95.410156" xlink:href="#DejaVuSans-35"/>
      </g>
     </g>
    </g>
    <g id="ytick_6">
     <g id="line2d_10">
      <g>
       <use style="stroke:#000000;stroke-width:0.8;" x="111.550115" xlink:href="#mebf4b52d12" y="86.215125"/>
      </g>
     </g>
     <g id="text_10">
      <!-- 1.0 -->
      <g transform="translate(88.64699 90.014344)scale(0.1 -0.1)">
       <use xlink:href="#DejaVuSans-31"/>
       <use x="63.623047" xlink:href="#DejaVuSans-2e"/>
       <use x="95.410156" xlink:href="#DejaVuSans-30"/>
      </g>
     </g>
    </g>
    <g id="ytick_7">
     <g id="line2d_11">
      <g>
       <use style="stroke:#000000;stroke-width:0.8;" x="111.550115" xlink:href="#mebf4b52d12" y="57.682687"/>
      </g>
     </g>
     <g id="text_11">
      <!-- 1.5 -->
      <g transform="translate(88.64699 61.481906)scale(0.1 -0.1)">
       <use xlink:href="#DejaVuSans-31"/>
       <use x="63.623047" xlink:href="#DejaVuSans-2e"/>
       <use x="95.410156" xlink:href="#DejaVuSans-35"/>
      </g>
     </g>
    </g>
   </g>
   <g id="line2d_12">
    <path clip-path="url(#p01929dbcb4)" d="M 235.666219 143.28 
L 292.731094 143.28 
M 292.731094 143.28 
L 321.263531 93.861818 
M 321.263531 93.861818 
L 292.731094 44.443636 
M 292.731094 44.443636 
L 235.666219 44.443636 
M 235.666219 44.443636 
L 207.133781 93.861818 
M 207.133781 93.861818 
L 235.666219 143.28 
M 235.666219 143.28 
L 207.133781 93.861818 
M 207.133781 93.861818 
L 150.068906 93.861818 
M 150.068906 93.861818 
L 121.536469 143.28 
M 121.536469 143.28 
L 150.068906 192.698182 
M 150.068906 192.698182 
L 207.133781 192.698182 
M 207.133781 192.698182 
L 235.666219 143.28 
M 235.666219 143.28 
L 207.133781 192.698182 
M 207.133781 192.698182 
L 235.666219 242.116364 
M 235.666219 242.116364 
L 292.731094 242.116364 
M 292.731094 242.116364 
L 321.263531 192.698182 
M 321.263531 192.698182 
L 292.731094 143.28 
M 292.731094 143.28 
L 235.666219 143.28 
" style="fill:none;stroke:#1f77b4;stroke-linecap:square;stroke-width:1.5;"/>
   </g>
   <g id="line2d_13">
    <defs>
     <path d="M 0 2.5 
C 0.663008 2.5 1.29895 2.236584 1.767767 1.767767 
C 2.236584 1.29895 2.5 0.663008 2.5 0 
C 2.5 -0.663008 2.236584 -1.29895 1.767767 -1.767767 
C 1.29895 -2.236584 0.663008 -2.5 0 -2.5 
C -0.663008 -2.5 -1.29895 -2.236584 -1.767767 -1.767767 
C -2.236584 -1.29895 -2.5 -0.663008 -2.5 0 
C -2.5 0.663008 -2.236584 1.29895 -1.767767 1.767767 
C -1.29895 2.236584 -0.663008 2.5 0 2.5 
z
" id="m756cf93633" style="stroke:#ff7f0e;"/>
    </defs>
    <g clip-path="url(#p01929dbcb4)">
     <use style="fill:#ff7f0e;opacity:0.5;stroke:#ff7f0e;" x="264.198656" xlink:href="#m756cf93633" y="106.216364"/>
     <use style="fill:#ff7f0e;opacity:0.5;stroke:#ff7f0e;" x="257.065547" xlink:href="#m756cf93633" y="118.570909"/>
     <use style="fill:#ff7f0e;opacity:0.5;stroke:#ff7f0e;" x="249.932438" xlink:href="#m756cf93633" y="130.925455"/>
     <use style="fill:#ff7f0e;opacity:0.5;stroke:#ff7f0e;" x="271.331766" xlink:href="#m756cf93633" y="118.570909"/>
     <use style="fill:#ff7f0e;opacity:0.5;stroke:#ff7f0e;" x="264.198656" xlink:href="#m756cf93633" y="130.925455"/>
     <use style="fill:#ff7f0e;opacity:0.5;stroke:#ff7f0e;" x="278.464875" xlink:href="#m756cf93633" y="130.925455"/>
     <use style="fill:#ff7f0e;opacity:0.5;stroke:#ff7f0e;" x="274.89832" xlink:href="#m756cf93633" y="100.039091"/>
     <use style="fill:#ff7f0e;opacity:0.5;stroke:#ff7f0e;" x="282.03143" xlink:href="#m756cf93633" y="112.393636"/>
     <use style="fill:#ff7f0e;opacity:0.5;stroke:#ff7f0e;" x="289.164539" xlink:href="#m756cf93633" y="124.748182"/>
     <use style="fill:#ff7f0e;opacity:0.5;stroke:#ff7f0e;" x="289.164539" xlink:href="#m756cf93633" y="100.039091"/>
     <use style="fill:#ff7f0e;opacity:0.5;stroke:#ff7f0e;" x="296.297649" xlink:href="#m756cf93633" y="112.393636"/>
     <use style="fill:#ff7f0e;opacity:0.5;stroke:#ff7f0e;" x="303.430758" xlink:href="#m756cf93633" y="100.039091"/>
     <use style="fill:#ff7f0e;opacity:0.5;stroke:#ff7f0e;" x="274.89832" xlink:href="#m756cf93633" y="87.684545"/>
     <use style="fill:#ff7f0e;opacity:0.5;stroke:#ff7f0e;" x="289.164539" xlink:href="#m756cf93633" y="87.684545"/>
     <use style="fill:#ff7f0e;opacity:0.5;stroke:#ff7f0e;" x="303.430758" xlink:href="#m756cf93633" y="87.684545"/>
     <use style="fill:#ff7f0e;opacity:0.5;stroke:#ff7f0e;" x="282.03143" xlink:href="#m756cf93633" y="75.33"/>
     <use style="fill:#ff7f0e;opacity:0.5;stroke:#ff7f0e;" x="296.297649" xlink:href="#m756cf93633" y="75.33"/>
     <use style="fill:#ff7f0e;opacity:0.5;stroke:#ff7f0e;" x="289.164539" xlink:href="#m756cf93633" y="62.975455"/>
     <use style="fill:#ff7f0e;opacity:0.5;stroke:#ff7f0e;" x="264.198656" xlink:href="#m756cf93633" y="81.507273"/>
     <use style="fill:#ff7f0e;opacity:0.5;stroke:#ff7f0e;" x="271.331766" xlink:href="#m756cf93633" y="69.152727"/>
     <use style="fill:#ff7f0e;opacity:0.5;stroke:#ff7f0e;" x="278.464875" xlink:href="#m756cf93633" y="56.798182"/>
     <use style="fill:#ff7f0e;opacity:0.5;stroke:#ff7f0e;" x="257.065547" xlink:href="#m756cf93633" y="69.152727"/>
     <use style="fill:#ff7f0e;opacity:0.5;stroke:#ff7f0e;" x="264.198656" xlink:href="#m756cf93633" y="56.798182"/>
     <use style="fill:#ff7f0e;opacity:0.5;stroke:#ff7f0e;" x="249.932438" xlink:href="#m756cf93633" y="56.798182"/>
     <use style="fill:#ff7f0e;opacity:0.5;stroke:#ff7f0e;" x="253.498992" xlink:href="#m756cf93633" y="87.684545"/>
     <use style="fill:#ff7f0e;opacity:0.5;stroke:#ff7f0e;" x="246.365883" xlink:href="#m756cf93633" y="75.33"/>
     <use style="fill:#ff7f0e;opacity:0.5;stroke:#ff7f0e;" x="239.232773" xlink:href="#m756cf93633" y="62.975455"/>
     <use style="fill:#ff7f0e;opacity:0.5;stroke:#ff7f0e;" x="239.232773" xlink:href="#m756cf93633" y="87.684545"/>
     <use style="fill:#ff7f0e;opacity:0.5;stroke:#ff7f0e;" x="232.099664" xlink:href="#m756cf93633" y="75.33"/>
     <use style="fill:#ff7f0e;opacity:0.5;stroke:#ff7f0e;" x="224.966555" xlink:href="#m756cf93633" y="87.684545"/>
     <use style="fill:#ff7f0e;opacity:0.5;stroke:#ff7f0e;" x="253.498992" xlink:href="#m756cf93633" y="100.039091"/>
     <use style="fill:#ff7f0e;opacity:0.5;stroke:#ff7f0e;" x="239.232773" xlink:href="#m756cf93633" y="100.039091"/>
     <use style="fill:#ff7f0e;opacity:0.5;stroke:#ff7f0e;" x="224.966555" xlink:href="#m756cf93633" y="100.039091"/>
     <use style="fill:#ff7f0e;opacity:0.5;stroke:#ff7f0e;" x="246.365883" xlink:href="#m756cf93633" y="112.393636"/>
     <use style="fill:#ff7f0e;opacity:0.5;stroke:#ff7f0e;" x="232.099664" xlink:href="#m756cf93633" y="112.393636"/>
     <use style="fill:#ff7f0e;opacity:0.5;stroke:#ff7f0e;" x="239.232773" xlink:href="#m756cf93633" y="124.748182"/>
     <use style="fill:#ff7f0e;opacity:0.5;stroke:#ff7f0e;" x="189.301008" xlink:href="#m756cf93633" y="137.102727"/>
     <use style="fill:#ff7f0e;opacity:0.5;stroke:#ff7f0e;" x="203.567227" xlink:href="#m756cf93633" y="137.102727"/>
     <use style="fill:#ff7f0e;opacity:0.5;stroke:#ff7f0e;" x="217.833445" xlink:href="#m756cf93633" y="137.102727"/>
     <use style="fill:#ff7f0e;opacity:0.5;stroke:#ff7f0e;" x="196.434117" xlink:href="#m756cf93633" y="124.748182"/>
     <use style="fill:#ff7f0e;opacity:0.5;stroke:#ff7f0e;" x="210.700336" xlink:href="#m756cf93633" y="124.748182"/>
     <use style="fill:#ff7f0e;opacity:0.5;stroke:#ff7f0e;" x="203.567227" xlink:href="#m756cf93633" y="112.393636"/>
     <use style="fill:#ff7f0e;opacity:0.5;stroke:#ff7f0e;" x="178.601344" xlink:href="#m756cf93633" y="130.925455"/>
     <use style="fill:#ff7f0e;opacity:0.5;stroke:#ff7f0e;" x="185.734453" xlink:href="#m756cf93633" y="118.570909"/>
     <use style="fill:#ff7f0e;opacity:0.5;stroke:#ff7f0e;" x="192.867562" xlink:href="#m756cf93633" y="106.216364"/>
     <use style="fill:#ff7f0e;opacity:0.5;stroke:#ff7f0e;" x="171.468234" xlink:href="#m756cf93633" y="118.570909"/>
     <use style="fill:#ff7f0e;opacity:0.5;stroke:#ff7f0e;" x="178.601344" xlink:href="#m756cf93633" y="106.216364"/>
     <use style="fill:#ff7f0e;opacity:0.5;stroke:#ff7f0e;" x="164.335125" xlink:href="#m756cf93633" y="106.216364"/>
     <use style="fill:#ff7f0e;opacity:0.5;stroke:#ff7f0e;" x="167.90168" xlink:href="#m756cf93633" y="137.102727"/>
     <use style="fill:#ff7f0e;opacity:0.5;stroke:#ff7f0e;" x="160.76857" xlink:href="#m756cf93633" y="124.748182"/>
     <use style="fill:#ff7f0e;opacity:0.5;stroke:#ff7f0e;" x="153.635461" xlink:href="#m756cf93633" y="112.393636"/>
     <use style="fill:#ff7f0e;opacity:0.5;stroke:#ff7f0e;" x="153.635461" xlink:href="#m756cf93633" y="137.102727"/>
     <use style="fill:#ff7f0e;opacity:0.5;stroke:#ff7f0e;" x="146.502351" xlink:href="#m756cf93633" y="124.748182"/>
     <use style="fill:#ff7f0e;opacity:0.5;stroke:#ff7f0e;" x="139.369242" xlink:href="#m756cf93633" y="137.102727"/>
     <use style="fill:#ff7f0e;opacity:0.5;stroke:#ff7f0e;" x="167.90168" xlink:href="#m756cf93633" y="149.457273"/>
     <use style="fill:#ff7f0e;opacity:0.5;stroke:#ff7f0e;" x="153.635461" xlink:href="#m756cf93633" y="149.457273"/>
     <use style="fill:#ff7f0e;opacity:0.5;stroke:#ff7f0e;" x="139.369242" xlink:href="#m756cf93633" y="149.457273"/>
     <use style="fill:#ff7f0e;opacity:0.5;stroke:#ff7f0e;" x="160.76857" xlink:href="#m756cf93633" y="161.811818"/>
     <use style="fill:#ff7f0e;opacity:0.5;stroke:#ff7f0e;" x="146.502351" xlink:href="#m756cf93633" y="161.811818"/>
     <use style="fill:#ff7f0e;opacity:0.5;stroke:#ff7f0e;" x="153.635461" xlink:href="#m756cf93633" y="174.166364"/>
     <use style="fill:#ff7f0e;opacity:0.5;stroke:#ff7f0e;" x="178.601344" xlink:href="#m756cf93633" y="155.634545"/>
     <use style="fill:#ff7f0e;opacity:0.5;stroke:#ff7f0e;" x="171.468234" xlink:href="#m756cf93633" y="167.989091"/>
     <use style="fill:#ff7f0e;opacity:0.5;stroke:#ff7f0e;" x="164.335125" xlink:href="#m756cf93633" y="180.343636"/>
     <use style="fill:#ff7f0e;opacity:0.5;stroke:#ff7f0e;" x="185.734453" xlink:href="#m756cf93633" y="167.989091"/>
     <use style="fill:#ff7f0e;opacity:0.5;stroke:#ff7f0e;" x="178.601344" xlink:href="#m756cf93633" y="180.343636"/>
     <use style="fill:#ff7f0e;opacity:0.5;stroke:#ff7f0e;" x="192.867562" xlink:href="#m756cf93633" y="180.343636"/>
     <use style="fill:#ff7f0e;opacity:0.5;stroke:#ff7f0e;" x="189.301008" xlink:href="#m756cf93633" y="149.457273"/>
     <use style="fill:#ff7f0e;opacity:0.5;stroke:#ff7f0e;" x="196.434117" xlink:href="#m756cf93633" y="161.811818"/>
     <use style="fill:#ff7f0e;opacity:0.5;stroke:#ff7f0e;" x="203.567227" xlink:href="#m756cf93633" y="174.166364"/>
     <use style="fill:#ff7f0e;opacity:0.5;stroke:#ff7f0e;" x="203.567227" xlink:href="#m756cf93633" y="149.457273"/>
     <use style="fill:#ff7f0e;opacity:0.5;stroke:#ff7f0e;" x="210.700336" xlink:href="#m756cf93633" y="161.811818"/>
     <use style="fill:#ff7f0e;opacity:0.5;stroke:#ff7f0e;" x="217.833445" xlink:href="#m756cf93633" y="149.457273"/>
     <use style="fill:#ff7f0e;opacity:0.5;stroke:#ff7f0e;" x="253.498992" xlink:href="#m756cf93633" y="186.520909"/>
     <use style="fill:#ff7f0e;opacity:0.5;stroke:#ff7f0e;" x="246.365883" xlink:href="#m756cf93633" y="174.166364"/>
     <use style="fill:#ff7f0e;opacity:0.5;stroke:#ff7f0e;" x="239.232773" xlink:href="#m756cf93633" y="161.811818"/>
     <use style="fill:#ff7f0e;opacity:0.5;stroke:#ff7f0e;" x="239.232773" xlink:href="#m756cf93633" y="186.520909"/>
     <use style="fill:#ff7f0e;opacity:0.5;stroke:#ff7f0e;" x="232.099664" xlink:href="#m756cf93633" y="174.166364"/>
     <use style="fill:#ff7f0e;opacity:0.5;stroke:#ff7f0e;" x="224.966555" xlink:href="#m756cf93633" y="186.520909"/>
     <use style="fill:#ff7f0e;opacity:0.5;stroke:#ff7f0e;" x="253.498992" xlink:href="#m756cf93633" y="198.875455"/>
     <use style="fill:#ff7f0e;opacity:0.5;stroke:#ff7f0e;" x="239.232773" xlink:href="#m756cf93633" y="198.875455"/>
     <use style="fill:#ff7f0e;opacity:0.5;stroke:#ff7f0e;" x="224.966555" xlink:href="#m756cf93633" y="198.875455"/>
     <use style="fill:#ff7f0e;opacity:0.5;stroke:#ff7f0e;" x="246.365883" xlink:href="#m756cf93633" y="211.23"/>
     <use style="fill:#ff7f0e;opacity:0.5;stroke:#ff7f0e;" x="232.099664" xlink:href="#m756cf93633" y="211.23"/>
     <use style="fill:#ff7f0e;opacity:0.5;stroke:#ff7f0e;" x="239.232773" xlink:href="#m756cf93633" y="223.584545"/>
     <use style="fill:#ff7f0e;opacity:0.5;stroke:#ff7f0e;" x="264.198656" xlink:href="#m756cf93633" y="205.052727"/>
     <use style="fill:#ff7f0e;opacity:0.5;stroke:#ff7f0e;" x="257.065547" xlink:href="#m756cf93633" y="217.407273"/>
     <use style="fill:#ff7f0e;opacity:0.5;stroke:#ff7f0e;" x="249.932438" xlink:href="#m756cf93633" y="229.761818"/>
     <use style="fill:#ff7f0e;opacity:0.5;stroke:#ff7f0e;" x="271.331766" xlink:href="#m756cf93633" y="217.407273"/>
     <use style="fill:#ff7f0e;opacity:0.5;stroke:#ff7f0e;" x="264.198656" xlink:href="#m756cf93633" y="229.761818"/>
     <use style="fill:#ff7f0e;opacity:0.5;stroke:#ff7f0e;" x="278.464875" xlink:href="#m756cf93633" y="229.761818"/>
     <use style="fill:#ff7f0e;opacity:0.5;stroke:#ff7f0e;" x="274.89832" xlink:href="#m756cf93633" y="198.875455"/>
     <use style="fill:#ff7f0e;opacity:0.5;stroke:#ff7f0e;" x="282.03143" xlink:href="#m756cf93633" y="211.23"/>
     <use style="fill:#ff7f0e;opacity:0.5;stroke:#ff7f0e;" x="289.164539" xlink:href="#m756cf93633" y="223.584545"/>
     <use style="fill:#ff7f0e;opacity:0.5;stroke:#ff7f0e;" x="289.164539" xlink:href="#m756cf93633" y="198.875455"/>
     <use style="fill:#ff7f0e;opacity:0.5;stroke:#ff7f0e;" x="296.297649" xlink:href="#m756cf93633" y="211.23"/>
     <use style="fill:#ff7f0e;opacity:0.5;stroke:#ff7f0e;" x="303.430758" xlink:href="#m756cf93633" y="198.875455"/>
     <use style="fill:#ff7f0e;opacity:0.5;stroke:#ff7f0e;" x="274.89832" xlink:href="#m756cf93633" y="186.520909"/>
     <use style="fill:#ff7f0e;opacity:0.5;stroke:#ff7f0e;" x="289.164539" xlink:href="#m756cf93633" y="186.520909"/>
     <use style="fill:#ff7f0e;opacity:0.5;stroke:#ff7f0e;" x="303.430758" xlink:href="#m756cf93633" y="186.520909"/>
     <use style="fill:#ff7f0e;opacity:0.5;stroke:#ff7f0e;" x="282.03143" xlink:href="#m756cf93633" y="174.166364"/>
     <use style="fill:#ff7f0e;opacity:0.5;stroke:#ff7f0e;" x="296.297649" xlink:href="#m756cf93633" y="174.166364"/>
     <use style="fill:#ff7f0e;opacity:0.5;stroke:#ff7f0e;" x="289.164539" xlink:href="#m756cf93633" y="161.811818"/>
     <use style="fill:#ff7f0e;opacity:0.5;stroke:#ff7f0e;" x="264.198656" xlink:href="#m756cf93633" y="180.343636"/>
     <use style="fill:#ff7f0e;opacity:0.5;stroke:#ff7f0e;" x="271.331766" xlink:href="#m756cf93633" y="167.989091"/>
     <use style="fill:#ff7f0e;opacity:0.5;stroke:#ff7f0e;" x="278.464875" xlink:href="#m756cf93633" y="155.634545"/>
     <use style="fill:#ff7f0e;opacity:0.5;stroke:#ff7f0e;" x="257.065547" xlink:href="#m756cf93633" y="167.989091"/>
     <use style="fill:#ff7f0e;opacity:0.5;stroke:#ff7f0e;" x="264.198656" xlink:href="#m756cf93633" y="155.634545"/>
     <use style="fill:#ff7f0e;opacity:0.5;stroke:#ff7f0e;" x="249.932438" xlink:href="#m756cf93633" y="155.634545"/>
    </g>
   </g>
   <g id="line2d_14">
    <defs>
     <path d="M 0 5 
C 1.326016 5 2.597899 4.473168 3.535534 3.535534 
C 4.473168 2.597899 5 1.326016 5 0 
C 5 -1.326016 4.473168 -2.597899 3.535534 -3.535534 
C 2.597899 -4.473168 1.326016 -5 0 -5 
C -1.326016 -5 -2.597899 -4.473168 -3.535534 -3.535534 
C -4.473168 -2.597899 -5 -1.326016 -5 0 
C -5 1.326016 -4.473168 2.597899 -3.535534 3.535534 
C -2.597899 4.473168 -1.326016 5 0 5 
z
" id="m54ad6232b9" style="stroke:#ff0000;"/>
    </defs>
    <g clip-path="url(#p01929dbcb4)">
     <use style="fill:#ff0000;opacity:0.2;stroke:#ff0000;" x="260.632102" xlink:href="#m54ad6232b9" y="100.039091"/>
     <use style="fill:#ff0000;opacity:0.2;stroke:#ff0000;" x="253.498992" xlink:href="#m54ad6232b9" y="112.393636"/>
     <use style="fill:#ff0000;opacity:0.2;stroke:#ff0000;" x="246.365883" xlink:href="#m54ad6232b9" y="124.748182"/>
     <use style="fill:#ff0000;opacity:0.2;stroke:#ff0000;" x="239.232773" xlink:href="#m54ad6232b9" y="137.102727"/>
     <use style="fill:#ff0000;opacity:0.2;stroke:#ff0000;" x="267.765211" xlink:href="#m54ad6232b9" y="100.039091"/>
     <use style="fill:#ff0000;opacity:0.2;stroke:#ff0000;" x="274.89832" xlink:href="#m54ad6232b9" y="112.393636"/>
     <use style="fill:#ff0000;opacity:0.2;stroke:#ff0000;" x="282.03143" xlink:href="#m54ad6232b9" y="124.748182"/>
     <use style="fill:#ff0000;opacity:0.2;stroke:#ff0000;" x="289.164539" xlink:href="#m54ad6232b9" y="137.102727"/>
     <use style="fill:#ff0000;opacity:0.2;stroke:#ff0000;" x="271.331766" xlink:href="#m54ad6232b9" y="93.861818"/>
     <use style="fill:#ff0000;opacity:0.2;stroke:#ff0000;" x="285.597984" xlink:href="#m54ad6232b9" y="93.861818"/>
     <use style="fill:#ff0000;opacity:0.2;stroke:#ff0000;" x="299.864203" xlink:href="#m54ad6232b9" y="93.861818"/>
     <use style="fill:#ff0000;opacity:0.2;stroke:#ff0000;" x="314.130422" xlink:href="#m54ad6232b9" y="93.861818"/>
     <use style="fill:#ff0000;opacity:0.2;stroke:#ff0000;" x="267.765211" xlink:href="#m54ad6232b9" y="87.684545"/>
     <use style="fill:#ff0000;opacity:0.2;stroke:#ff0000;" x="274.89832" xlink:href="#m54ad6232b9" y="75.33"/>
     <use style="fill:#ff0000;opacity:0.2;stroke:#ff0000;" x="282.03143" xlink:href="#m54ad6232b9" y="62.975455"/>
     <use style="fill:#ff0000;opacity:0.2;stroke:#ff0000;" x="289.164539" xlink:href="#m54ad6232b9" y="50.620909"/>
     <use style="fill:#ff0000;opacity:0.2;stroke:#ff0000;" x="260.632102" xlink:href="#m54ad6232b9" y="87.684545"/>
     <use style="fill:#ff0000;opacity:0.2;stroke:#ff0000;" x="253.498992" xlink:href="#m54ad6232b9" y="75.33"/>
     <use style="fill:#ff0000;opacity:0.2;stroke:#ff0000;" x="246.365883" xlink:href="#m54ad6232b9" y="62.975455"/>
     <use style="fill:#ff0000;opacity:0.2;stroke:#ff0000;" x="239.232773" xlink:href="#m54ad6232b9" y="50.620909"/>
     <use style="fill:#ff0000;opacity:0.2;stroke:#ff0000;" x="257.065547" xlink:href="#m54ad6232b9" y="93.861818"/>
     <use style="fill:#ff0000;opacity:0.2;stroke:#ff0000;" x="242.799328" xlink:href="#m54ad6232b9" y="93.861818"/>
     <use style="fill:#ff0000;opacity:0.2;stroke:#ff0000;" x="228.533109" xlink:href="#m54ad6232b9" y="93.861818"/>
     <use style="fill:#ff0000;opacity:0.2;stroke:#ff0000;" x="214.266891" xlink:href="#m54ad6232b9" y="93.861818"/>
     <use style="fill:#ff0000;opacity:0.2;stroke:#ff0000;" x="185.734453" xlink:href="#m54ad6232b9" y="143.28"/>
     <use style="fill:#ff0000;opacity:0.2;stroke:#ff0000;" x="200.000672" xlink:href="#m54ad6232b9" y="143.28"/>
     <use style="fill:#ff0000;opacity:0.2;stroke:#ff0000;" x="214.266891" xlink:href="#m54ad6232b9" y="143.28"/>
     <use style="fill:#ff0000;opacity:0.2;stroke:#ff0000;" x="228.533109" xlink:href="#m54ad6232b9" y="143.28"/>
     <use style="fill:#ff0000;opacity:0.2;stroke:#ff0000;" x="182.167898" xlink:href="#m54ad6232b9" y="137.102727"/>
     <use style="fill:#ff0000;opacity:0.2;stroke:#ff0000;" x="189.301008" xlink:href="#m54ad6232b9" y="124.748182"/>
     <use style="fill:#ff0000;opacity:0.2;stroke:#ff0000;" x="196.434117" xlink:href="#m54ad6232b9" y="112.393636"/>
     <use style="fill:#ff0000;opacity:0.2;stroke:#ff0000;" x="203.567227" xlink:href="#m54ad6232b9" y="100.039091"/>
     <use style="fill:#ff0000;opacity:0.2;stroke:#ff0000;" x="175.034789" xlink:href="#m54ad6232b9" y="137.102727"/>
     <use style="fill:#ff0000;opacity:0.2;stroke:#ff0000;" x="167.90168" xlink:href="#m54ad6232b9" y="124.748182"/>
     <use style="fill:#ff0000;opacity:0.2;stroke:#ff0000;" x="160.76857" xlink:href="#m54ad6232b9" y="112.393636"/>
     <use style="fill:#ff0000;opacity:0.2;stroke:#ff0000;" x="153.635461" xlink:href="#m54ad6232b9" y="100.039091"/>
     <use style="fill:#ff0000;opacity:0.2;stroke:#ff0000;" x="171.468234" xlink:href="#m54ad6232b9" y="143.28"/>
     <use style="fill:#ff0000;opacity:0.2;stroke:#ff0000;" x="157.202016" xlink:href="#m54ad6232b9" y="143.28"/>
     <use style="fill:#ff0000;opacity:0.2;stroke:#ff0000;" x="142.935797" xlink:href="#m54ad6232b9" y="143.28"/>
     <use style="fill:#ff0000;opacity:0.2;stroke:#ff0000;" x="128.669578" xlink:href="#m54ad6232b9" y="143.28"/>
     <use style="fill:#ff0000;opacity:0.2;stroke:#ff0000;" x="175.034789" xlink:href="#m54ad6232b9" y="149.457273"/>
     <use style="fill:#ff0000;opacity:0.2;stroke:#ff0000;" x="167.90168" xlink:href="#m54ad6232b9" y="161.811818"/>
     <use style="fill:#ff0000;opacity:0.2;stroke:#ff0000;" x="160.76857" xlink:href="#m54ad6232b9" y="174.166364"/>
     <use style="fill:#ff0000;opacity:0.2;stroke:#ff0000;" x="153.635461" xlink:href="#m54ad6232b9" y="186.520909"/>
     <use style="fill:#ff0000;opacity:0.2;stroke:#ff0000;" x="182.167898" xlink:href="#m54ad6232b9" y="149.457273"/>
     <use style="fill:#ff0000;opacity:0.2;stroke:#ff0000;" x="189.301008" xlink:href="#m54ad6232b9" y="161.811818"/>
     <use style="fill:#ff0000;opacity:0.2;stroke:#ff0000;" x="196.434117" xlink:href="#m54ad6232b9" y="174.166364"/>
     <use style="fill:#ff0000;opacity:0.2;stroke:#ff0000;" x="203.567227" xlink:href="#m54ad6232b9" y="186.520909"/>
     <use style="fill:#ff0000;opacity:0.2;stroke:#ff0000;" x="260.632102" xlink:href="#m54ad6232b9" y="186.520909"/>
     <use style="fill:#ff0000;opacity:0.2;stroke:#ff0000;" x="253.498992" xlink:href="#m54ad6232b9" y="174.166364"/>
     <use style="fill:#ff0000;opacity:0.2;stroke:#ff0000;" x="246.365883" xlink:href="#m54ad6232b9" y="161.811818"/>
     <use style="fill:#ff0000;opacity:0.2;stroke:#ff0000;" x="239.232773" xlink:href="#m54ad6232b9" y="149.457273"/>
     <use style="fill:#ff0000;opacity:0.2;stroke:#ff0000;" x="257.065547" xlink:href="#m54ad6232b9" y="192.698182"/>
     <use style="fill:#ff0000;opacity:0.2;stroke:#ff0000;" x="242.799328" xlink:href="#m54ad6232b9" y="192.698182"/>
     <use style="fill:#ff0000;opacity:0.2;stroke:#ff0000;" x="228.533109" xlink:href="#m54ad6232b9" y="192.698182"/>
     <use style="fill:#ff0000;opacity:0.2;stroke:#ff0000;" x="214.266891" xlink:href="#m54ad6232b9" y="192.698182"/>
     <use style="fill:#ff0000;opacity:0.2;stroke:#ff0000;" x="260.632102" xlink:href="#m54ad6232b9" y="198.875455"/>
     <use style="fill:#ff0000;opacity:0.2;stroke:#ff0000;" x="253.498992" xlink:href="#m54ad6232b9" y="211.23"/>
     <use style="fill:#ff0000;opacity:0.2;stroke:#ff0000;" x="246.365883" xlink:href="#m54ad6232b9" y="223.584545"/>
     <use style="fill:#ff0000;opacity:0.2;stroke:#ff0000;" x="239.232773" xlink:href="#m54ad6232b9" y="235.939091"/>
     <use style="fill:#ff0000;opacity:0.2;stroke:#ff0000;" x="267.765211" xlink:href="#m54ad6232b9" y="198.875455"/>
     <use style="fill:#ff0000;opacity:0.2;stroke:#ff0000;" x="274.89832" xlink:href="#m54ad6232b9" y="211.23"/>
     <use style="fill:#ff0000;opacity:0.2;stroke:#ff0000;" x="282.03143" xlink:href="#m54ad6232b9" y="223.584545"/>
     <use style="fill:#ff0000;opacity:0.2;stroke:#ff0000;" x="289.164539" xlink:href="#m54ad6232b9" y="235.939091"/>
     <use style="fill:#ff0000;opacity:0.2;stroke:#ff0000;" x="271.331766" xlink:href="#m54ad6232b9" y="192.698182"/>
     <use style="fill:#ff0000;opacity:0.2;stroke:#ff0000;" x="285.597984" xlink:href="#m54ad6232b9" y="192.698182"/>
     <use style="fill:#ff0000;opacity:0.2;stroke:#ff0000;" x="299.864203" xlink:href="#m54ad6232b9" y="192.698182"/>
     <use style="fill:#ff0000;opacity:0.2;stroke:#ff0000;" x="314.130422" xlink:href="#m54ad6232b9" y="192.698182"/>
     <use style="fill:#ff0000;opacity:0.2;stroke:#ff0000;" x="267.765211" xlink:href="#m54ad6232b9" y="186.520909"/>
     <use style="fill:#ff0000;opacity:0.2;stroke:#ff0000;" x="274.89832" xlink:href="#m54ad6232b9" y="174.166364"/>
     <use style="fill:#ff0000;opacity:0.2;stroke:#ff0000;" x="282.03143" xlink:href="#m54ad6232b9" y="161.811818"/>
     <use style="fill:#ff0000;opacity:0.2;stroke:#ff0000;" x="289.164539" xlink:href="#m54ad6232b9" y="149.457273"/>
    </g>
   </g>
   <g id="patch_3">
    <path d="M 111.550115 252 
L 111.550115 34.56 
" style="fill:none;stroke:#000000;stroke-linecap:square;stroke-linejoin:miter;stroke-width:0.8;"/>
   </g>
   <g id="patch_4">
    <path d="M 331.249885 252 
L 331.249885 34.56 
" style="fill:none;stroke:#000000;stroke-linecap:square;stroke-linejoin:miter;stroke-width:0.8;"/>
   </g>
   <g id="patch_5">
    <path d="M 111.550115 252 
L 331.249885 252 
" style="fill:none;stroke:#000000;stroke-linecap:square;stroke-linejoin:miter;stroke-width:0.8;"/>
   </g>
   <g id="patch_6">
    <path d="M 111.550115 34.56 
L 331.249885 34.56 
" style="fill:none;stroke:#000000;stroke-linecap:square;stroke-linejoin:miter;stroke-width:0.8;"/>
   </g>
  </g>
 </g>
 <defs>
  <clipPath id="p01929dbcb4">
   <rect height="217.44" width="219.699769" x="111.550115" y="34.56"/>
  </clipPath>
 </defs>
</svg>
