<?xml version="1.0" encoding="UTF-8" standalone="no"?>
<!-- Created with Inkscape (http://www.inkscape.org/) -->

<svg
   xmlns:dc="http://purl.org/dc/elements/1.1/"
   xmlns:cc="http://creativecommons.org/ns#"
   xmlns:rdf="http://www.w3.org/1999/02/22-rdf-syntax-ns#"
   xmlns:svg="http://www.w3.org/2000/svg"
   xmlns="http://www.w3.org/2000/svg"
   xmlns:sodipodi="http://sodipodi.sourceforge.net/DTD/sodipodi-0.dtd"
   xmlns:inkscape="http://www.inkscape.org/namespaces/inkscape"
   width="720"
   height="200"
   viewBox="0 0 720.00002 200.00001"
   id="svg2"
   version="1.1"
   inkscape:version="0.91 r13725"
   sodipodi:docname="monolayer.svg"
   inkscape:export-filename="/home/guillaume/Notebooks/tyssue/core_architecture/monolayer.png"
   inkscape:export-xdpi="300"
   inkscape:export-ydpi="300">
  <defs
     id="defs4">
    <marker
       inkscape:isstock="true"
       style="overflow:visible"
       id="marker5118"
       refX="0"
       refY="0"
       orient="auto"
       inkscape:stockid="Arrow1Sstart">
      <path
         transform="matrix(0.2,0,0,0.2,1.2,0)"
         style="fill:#404040;fill-opacity:1;fill-rule:evenodd;stroke:#404040;stroke-width:1pt;stroke-opacity:1"
         d="M 0,0 5,-5 -12.5,0 5,5 0,0 Z"
         id="path5120"
         inkscape:connector-curvature="0" />
    </marker>
    <marker
       inkscape:isstock="true"
       style="overflow:visible"
       id="marker5114"
       refX="0"
       refY="0"
       orient="auto"
       inkscape:stockid="Arrow1Sstart">
      <path
         transform="matrix(0.2,0,0,0.2,1.2,0)"
         style="fill:#404040;fill-opacity:1;fill-rule:evenodd;stroke:#404040;stroke-width:1pt;stroke-opacity:1"
         d="M 0,0 5,-5 -12.5,0 5,5 0,0 Z"
         id="path5116"
         inkscape:connector-curvature="0" />
    </marker>
    <marker
       inkscape:stockid="Arrow1Sstart"
       orient="auto"
       refY="0"
       refX="0"
       id="Arrow1Sstart"
       style="overflow:visible"
       inkscape:isstock="true"
       inkscape:collect="always">
      <path
         id="path4842"
         d="M 0,0 5,-5 -12.5,0 5,5 0,0 Z"
         style="fill:#000000;fill-opacity:1;fill-rule:evenodd;stroke:#000000;stroke-width:1pt;stroke-opacity:1"
         transform="matrix(0.2,0,0,0.2,1.2,0)"
         inkscape:connector-curvature="0" />
    </marker>
    <marker
       inkscape:isstock="true"
       style="overflow:visible"
       id="marker5108"
       refX="0"
       refY="0"
       orient="auto"
       inkscape:stockid="Arrow1Mend">
      <path
         transform="matrix(-0.4,0,0,-0.4,-4,0)"
         style="fill:#000000;fill-opacity:1;fill-rule:evenodd;stroke:#000000;stroke-width:1pt;stroke-opacity:1"
         d="M 0,0 5,-5 -12.5,0 5,5 0,0 Z"
         id="path5110"
         inkscape:connector-curvature="0" />
    </marker>
    <marker
       inkscape:isstock="true"
       style="overflow:visible"
       id="marker5088"
       refX="0"
       refY="0"
       orient="auto"
       inkscape:stockid="Arrow1Mend">
      <path
         transform="matrix(-0.4,0,0,-0.4,-4,0)"
         style="fill:#000000;fill-opacity:1;fill-rule:evenodd;stroke:#000000;stroke-width:1pt;stroke-opacity:1"
         d="M 0,0 5,-5 -12.5,0 5,5 0,0 Z"
         id="path5090"
         inkscape:connector-curvature="0" />
    </marker>
  </defs>
  <sodipodi:namedview
     id="base"
     pagecolor="#ffffff"
     bordercolor="#666666"
     borderopacity="1.0"
     inkscape:pageopacity="0.0"
     inkscape:pageshadow="2"
     inkscape:zoom="0.92870628"
     inkscape:cx="236.88788"
     inkscape:cy="207.25247"
     inkscape:document-units="px"
     inkscape:current-layer="layer4"
     showgrid="false"
     inkscape:object-nodes="false"
     inkscape:object-paths="true"
     inkscape:window-width="859"
     inkscape:window-height="396"
     inkscape:window-x="695"
     inkscape:window-y="587"
     inkscape:window-maximized="0"
     showguides="true"
     inkscape:guide-bbox="true"
     units="px"
     fit-margin-top="10"
     fit-margin-left="10"
     fit-margin-right="10"
     fit-margin-bottom="10"
     inkscape:snap-global="true"
     inkscape:snap-object-midpoints="true">
    <sodipodi:guide
       position="21.535335,179.82005"
       orientation="1,0"
       id="guide5240" />
  </sodipodi:namedview>
  <metadata
     id="metadata7">
    <rdf:RDF>
      <cc:Work
         rdf:about="">
        <dc:format>image/svg+xml</dc:format>
        <dc:type
           rdf:resource="http://purl.org/dc/dcmitype/StillImage" />
        <dc:title></dc:title>
        <dc:creator>
          <cc:Agent>
            <dc:title>Guillaume Gay</dc:title>
          </cc:Agent>
        </dc:creator>
        <dc:rights>
          <cc:Agent>
            <dc:title>Guillaume Gay</dc:title>
          </cc:Agent>
        </dc:rights>
        <dc:publisher>
          <cc:Agent>
            <dc:title>Morphogénie Logiciels</dc:title>
          </cc:Agent>
        </dc:publisher>
        <dc:description>Epithelial monolayer with lamina
</dc:description>
        <cc:license
           rdf:resource="http://creativecommons.org/licenses/by/3.0/" />
      </cc:Work>
      <cc:License
         rdf:about="http://creativecommons.org/licenses/by/3.0/">
        <cc:permits
           rdf:resource="http://creativecommons.org/ns#Reproduction" />
        <cc:permits
           rdf:resource="http://creativecommons.org/ns#Distribution" />
        <cc:requires
           rdf:resource="http://creativecommons.org/ns#Notice" />
        <cc:requires
           rdf:resource="http://creativecommons.org/ns#Attribution" />
        <cc:permits
           rdf:resource="http://creativecommons.org/ns#DerivativeWorks" />
      </cc:License>
    </rdf:RDF>
  </metadata>
  <g
     inkscape:label="lamina"
     inkscape:groupmode="layer"
     id="layer1"
     transform="translate(-173.79858,-93.193211)"
     style="display:inline">
    <path
       id="path4527"
       style="color:#000000;clip-rule:nonzero;display:inline;overflow:visible;visibility:visible;opacity:1;isolation:auto;mix-blend-mode:normal;color-interpolation:sRGB;color-interpolation-filters:linearRGB;solid-color:#000000;solid-opacity:1;fill:none;fill-opacity:1;fill-rule:evenodd;stroke:#153516;stroke-width:0.99999994px;stroke-linecap:butt;stroke-linejoin:miter;stroke-miterlimit:4;stroke-dasharray:none;stroke-dashoffset:0;stroke-opacity:0.46349206;color-rendering:auto;image-rendering:auto;shape-rendering:auto;text-rendering:auto;enable-background:accumulate"
       d="m 470.10447,214.31333 29.61449,55.51308 m -29.61449,-55.51308 -68.61935,49.16464 m 68.61935,-49.16464 -78.48623,-33.35668 m 78.48623,33.35668 -11.77291,-45.12963 m 0,0 -59.43044,-27.86053 m 71.20335,72.99016 78.48631,-39.24313 m 34.42907,25.77819 -34.42907,-25.77819 m 62.18189,-0.51821 -62.18189,0.51821 m 30.7738,-33.93107 -30.7738,33.93107 m -19.01141,-37.60649 19.01141,37.60649 m -90.25921,-5.8865 90.25921,5.8865 m -90.25921,-5.8865 -66.71333,11.77295 m -37.28098,39.24314 37.28098,-39.24314 m -37.28098,39.24314 18.76254,46.26614 m 14.03633,-120.47412 4.48211,34.96484 m -111.8381,53.29716 74.55712,-14.05402 m 0,0 115.76724,-5.88644 m -3e-5,-2e-5 100.21669,5.20966 m -111.9896,-50.33929 29.44779,-31.87007"
       inkscape:connector-curvature="0"
       sodipodi:nodetypes="cccccccccccccccccccccccccccccccccccccc" />
    <g
       id="g4423"
       transform="matrix(0.98107844,0,0,0.98107844,95.440446,3.6181018)">
      <ellipse
         ry="2.167392"
         rx="3.6123202"
         cy="220.75879"
         cx="263.88998"
         id="path4413"
         style="color:#000000;clip-rule:nonzero;display:inline;overflow:visible;visibility:visible;opacity:1;isolation:auto;mix-blend-mode:normal;color-interpolation:sRGB;color-interpolation-filters:linearRGB;solid-color:#000000;solid-opacity:1;fill:#5085c3;fill-opacity:0.66031728;fill-rule:evenodd;stroke:none;stroke-width:0.2;stroke-linecap:round;stroke-linejoin:bevel;stroke-miterlimit:4;stroke-dasharray:none;stroke-dashoffset:0;stroke-opacity:1;color-rendering:auto;image-rendering:auto;shape-rendering:auto;text-rendering:auto;enable-background:accumulate" />
      <ellipse
         style="color:#000000;clip-rule:nonzero;display:inline;overflow:visible;visibility:visible;opacity:1;isolation:auto;mix-blend-mode:normal;color-interpolation:sRGB;color-interpolation-filters:linearRGB;solid-color:#000000;solid-opacity:1;fill:#5085c3;fill-opacity:0.66031728;fill-rule:evenodd;stroke:none;stroke-width:0.2;stroke-linecap:round;stroke-linejoin:bevel;stroke-miterlimit:4;stroke-dasharray:none;stroke-dashoffset:0;stroke-opacity:1;color-rendering:auto;image-rendering:auto;shape-rendering:auto;text-rendering:auto;enable-background:accumulate"
         id="ellipse4415"
         cx="381.88998"
         cy="214.75879"
         rx="3.6123202"
         ry="2.167392" />
      <ellipse
         ry="2.167392"
         rx="3.6123202"
         cy="168.75879"
         cx="369.88998"
         id="ellipse4417"
         style="color:#000000;clip-rule:nonzero;display:inline;overflow:visible;visibility:visible;opacity:1;isolation:auto;mix-blend-mode:normal;color-interpolation:sRGB;color-interpolation-filters:linearRGB;solid-color:#000000;solid-opacity:1;fill:#5085c3;fill-opacity:0.66031728;fill-rule:evenodd;stroke:none;stroke-width:0.2;stroke-linecap:round;stroke-linejoin:bevel;stroke-miterlimit:4;stroke-dasharray:none;stroke-dashoffset:0;stroke-opacity:1;color-rendering:auto;image-rendering:auto;shape-rendering:auto;text-rendering:auto;enable-background:accumulate" />
      <ellipse
         style="color:#000000;clip-rule:nonzero;display:inline;overflow:visible;visibility:visible;opacity:1;isolation:auto;mix-blend-mode:normal;color-interpolation:sRGB;color-interpolation-filters:linearRGB;solid-color:#000000;solid-opacity:1;fill:#5085c3;fill-opacity:0.66031728;fill-rule:evenodd;stroke:none;stroke-width:0.2;stroke-linecap:round;stroke-linejoin:bevel;stroke-miterlimit:4;stroke-dasharray:none;stroke-dashoffset:0;stroke-opacity:1;color-rendering:auto;image-rendering:auto;shape-rendering:auto;text-rendering:auto;enable-background:accumulate"
         id="ellipse4419"
         cx="301.88998"
         cy="180.75879"
         rx="3.6123202"
         ry="2.167392" />
      <ellipse
         ry="2.167392"
         rx="3.6123202"
         cy="174.75879"
         cx="461.88998"
         id="ellipse4421"
         style="color:#000000;clip-rule:nonzero;display:inline;overflow:visible;visibility:visible;opacity:1;isolation:auto;mix-blend-mode:normal;color-interpolation:sRGB;color-interpolation-filters:linearRGB;solid-color:#000000;solid-opacity:1;fill:#5085c3;fill-opacity:0.66031728;fill-rule:evenodd;stroke:none;stroke-width:0.2;stroke-linecap:round;stroke-linejoin:bevel;stroke-miterlimit:4;stroke-dasharray:none;stroke-dashoffset:0;stroke-opacity:1;color-rendering:auto;image-rendering:auto;shape-rendering:auto;text-rendering:auto;enable-background:accumulate" />
    </g>
    <path
       style="color:#000000;clip-rule:nonzero;display:inline;overflow:visible;visibility:visible;opacity:1;isolation:auto;mix-blend-mode:normal;color-interpolation:sRGB;color-interpolation-filters:linearRGB;solid-color:#000000;solid-opacity:1;fill:none;fill-opacity:1;fill-rule:evenodd;stroke:#153516;stroke-width:0.99999994px;stroke-linecap:butt;stroke-linejoin:miter;stroke-miterlimit:4;stroke-dasharray:none;stroke-dashoffset:0;stroke-opacity:0.46349206;color-rendering:auto;image-rendering:auto;shape-rendering:auto;text-rendering:auto;enable-background:accumulate"
       d="M 391.61823,180.95664 331.69942,164.90148"
       id="path4576"
       inkscape:connector-curvature="0" />
  </g>
  <g
     inkscape:groupmode="layer"
     id="layer2"
     inkscape:label="basal"
     style="display:inline"
     transform="translate(-4.5513815,16.199669)">
    <path
       sodipodi:nodetypes="cccccccccccccccccccccccccccccccccccccccccccccccccccccccccc"
       inkscape:connector-curvature="0"
       d="M 274.56947,81.277965 247.98313,57.529585 M 174.22339,78.66839 244.59064,98.916383 M 317.7933,76.418634 330.49418,54.002431 m -12.70088,22.416203 -43.22383,4.859331 -29.97883,17.638418 m 73.20266,-22.497749 51.85297,18.560651 m -138.90993,32.621695 13.8543,-28.684597 m -13.8543,28.684597 57.75799,5.62448 m 71.27223,-17.43581 -71.27223,17.43581 m 71.27223,-17.43581 9.87971,-20.810365 m 40.84932,-20.772288 -40.84932,20.772288 m -9.87971,20.810365 34.29677,7.58756 m -163.32699,4.22377 -92.08599,9.68131 m -12.93633,-27.86594 12.93633,27.86594 m -12.93633,-27.86594 48.50937,-30.74796 m 0,0 13.58809,-21.930782 m 96.66711,-12.844576 46.01559,10.109399 M 284.47859,43.893032 247.98313,57.529585 187.81148,56.737608 M 410.49559,74.206997 420.82491,54.005504 M 386.09519,41.681419 420.82491,54.005504 M 386.09519,41.681419 330.49418,54.002431 m 80.00141,20.204566 22.27473,7.255166 M 442.69497,42.94864 420.82491,54.005504 M 386.09519,41.681419 395.66402,25.278526 M 284.47859,43.893032 290.31323,29.502645 M 187.81148,56.737608 182.02011,40.485296 m -56.30609,68.931054 -24.97835,-8.78262 m 25.36427,71.17488 12.55041,-34.52632 m 139.70289,25.86122 10.14109,-29.91805"
       style="color:#000000;clip-rule:nonzero;display:inline;overflow:visible;visibility:visible;opacity:1;isolation:auto;mix-blend-mode:normal;color-interpolation:sRGB;color-interpolation-filters:linearRGB;solid-color:#000000;solid-opacity:1;fill:none;fill-opacity:1;fill-rule:evenodd;stroke:#296c77;stroke-width:1.49999976;stroke-linecap:butt;stroke-linejoin:miter;stroke-miterlimit:4;stroke-dasharray:none;stroke-dashoffset:0;stroke-opacity:1;color-rendering:auto;image-rendering:auto;shape-rendering:auto;text-rendering:auto;enable-background:accumulate"
       id="path4410" />
  </g>
  <g
     inkscape:groupmode="layer"
     id="layer3"
     inkscape:label="sagittal"
     style="display:inline"
     transform="translate(-4.5513815,16.199669)">
    <path
       id="path4280"
       style="fill:none;fill-rule:evenodd;stroke:#931111;stroke-width:0.99999994px;stroke-linecap:butt;stroke-linejoin:miter;stroke-opacity:1"
       d="m 410.49559,74.207006 0,-33.323322 m 10.32932,13.12178 0,-33.323274 m -34.72972,20.999229 0,-33.3233123 m -55.60101,45.6443453 0,-33.323334 m -46.01559,23.213925 0,-33.323321 m -36.49546,46.959842 0,-33.323291 m -60.17165,32.531299 0,-33.323274 m -13.58809,55.254132 0,-33.323351 m -48.50937,64.071271 0,-33.323325 m 12.93633,61.189245 0,-33.32328 m 92.08599,23.642 0,-33.323316 m 13.8543,4.638709 0,-33.323313 m 29.97883,15.684905 0,-33.323325 m 43.22383,28.463974 0,-33.323307 m 51.85297,51.88395 0,-33.323295 m -9.87971,54.133698 0,-33.323324 m -71.27223,50.759114 0,-33.323337"
       inkscape:connector-curvature="0"
       sodipodi:nodetypes="cccccccccccccccccccccccccccccccccc" />
  </g>
  <g
     inkscape:groupmode="layer"
     id="layer4"
     inkscape:label="apical"
     style="display:inline"
     transform="translate(-4.5513815,16.199669)">
    <path
       id="path4679"
       style="color:#000000;clip-rule:nonzero;display:inline;overflow:visible;visibility:visible;opacity:1;isolation:auto;mix-blend-mode:normal;color-interpolation:sRGB;color-interpolation-filters:linearRGB;solid-color:#000000;solid-opacity:1;fill:none;fill-opacity:1;fill-rule:evenodd;stroke:#41bc42;stroke-width:1.49999976;stroke-linecap:butt;stroke-linejoin:miter;stroke-miterlimit:4;stroke-dasharray:none;stroke-dashoffset:0;stroke-opacity:1;color-rendering:auto;image-rendering:auto;shape-rendering:auto;text-rendering:auto;enable-background:accumulate"
       d="M 274.56947,47.95465 247.98313,24.206273 M 174.22339,45.345079 244.59064,65.59307 M 317.7933,43.095317 330.49418,20.679118 M 317.7933,43.095317 274.56947,47.95465 244.59064,65.59307 M 317.7933,43.095317 369.64627,61.655972 M 230.73634,94.277674 244.59064,65.59307 m -13.8543,28.684604 57.75799,5.624449 m 71.27223,-17.435777 -71.27223,17.435777 m 71.27223,-17.435777 9.87971,-20.810374 m 40.84932,-20.772288 -40.84932,20.772288 m -9.87971,20.810374 34.29677,7.587534 m -163.32699,4.223794 -92.08599,9.681316 M 125.71402,76.093025 138.65035,103.95899 M 125.71402,76.093025 174.22339,45.345079 m 0,0 13.58809,-21.930781 m 96.66711,-12.844576 46.01559,10.109396 M 284.47859,10.569722 247.98313,24.206273 187.81148,23.414298 M 410.49559,40.883684 420.82491,20.68219 M 386.09519,8.3581067 420.82491,20.68219 M 386.09519,8.3581067 330.49418,20.679118 m 80.00141,20.204566 22.27473,7.255165 M 442.69497,9.6253265 420.82491,20.68219 M 386.09519,8.3581067 395.66402,-8.0447912 M 284.47859,10.569722 290.31323,-3.8206689 M 187.81148,23.414298 182.02011,7.1619857 M 125.71402,76.093025 100.73567,67.310418 m 25.36427,71.174912 12.55041,-34.52634 m 139.70289,25.86118 10.14109,-29.918047"
       inkscape:connector-curvature="0"
       sodipodi:nodetypes="cccccccccccccccccccccccccccccccccccccccccccccccccccccccccc" />
    <path
       style="fill:#e6e6e6;fill-rule:evenodd;stroke:#e6e6e6;stroke-width:0.99999994px;stroke-linecap:butt;stroke-linejoin:miter;stroke-opacity:1"
       d="m 492.10102,-13.41455 0,181.85287"
       id="path5194"
       inkscape:connector-curvature="0" />
    <path
       inkscape:connector-curvature="0"
       id="path5196"
       d="m 571.51909,-13.41455 0,181.85287"
       style="fill:#e6e6e6;fill-rule:evenodd;stroke:#e6e6e6;stroke-width:0.99999994px;stroke-linecap:butt;stroke-linejoin:miter;stroke-opacity:1" />
    <path
       sodipodi:nodetypes="cccccccccccccccccccccccccccccccccccccccccccccccccccccccccc"
       inkscape:connector-curvature="0"
       d="m 532.72642,10.672329 -7.19206,-6.4243545 m -19.95331,5.7184208 19.03559,5.4774367 m 19.80258,-6.0860374 3.43583,-6.0639767 m -3.43583,6.0639767 -11.6928,1.3145344 -8.10978,4.771503 m 19.80258,-6.0860374 14.02717,5.0209804 m -37.57761,8.824745 3.74786,-7.759688 m -3.74786,7.759688 15.62455,1.521516 m 19.28041,-4.716687 -19.28041,4.716687 m 19.28041,-4.716687 2.67265,-5.629574 m 11.05044,-5.619268 -11.05044,5.619268 m -2.67265,5.629574 9.27788,2.052559 m -44.18284,1.142612 -24.91088,2.618965 m -3.49948,-7.538232 3.49948,7.538232 m -3.49948,-7.538232 13.12263,-8.3178577 m 0,0 3.67581,-5.9326636 m 26.15015,-3.4746831 12.44804,2.7347693 m -12.44804,-2.7347693 -9.87265,3.6889269 -16.2775,-0.2142438 m 60.23997,4.7257763 2.79424,-5.4648593 m -9.39498,-3.33388124 9.39498,3.33388124 m -9.39498,-3.33388124 -15.04105,3.33305044 m 21.64179,5.4656901 6.02571,1.962647 m 2.68479,-10.41858191 -5.91626,2.99107561 m -9.39498,-3.33388124 2.58853,-4.43727206 m -30.07761,5.0355532 1.57838,-3.8928535 m -27.72853,7.3675366 -1.56666,-4.39653644 m -15.23178,18.64705774 -6.75711,-2.37585 m 6.86148,19.254059 3.3951,-9.339977 m 37.7921,6.995909 2.74334,-8.093358"
       style="color:#000000;clip-rule:nonzero;display:inline;overflow:visible;visibility:visible;opacity:1;isolation:auto;mix-blend-mode:normal;color-interpolation:sRGB;color-interpolation-filters:linearRGB;solid-color:#000000;solid-opacity:1;fill:none;fill-opacity:1;fill-rule:evenodd;stroke:#9cdd9d;stroke-width:1.49999964;stroke-linecap:butt;stroke-linejoin:miter;stroke-miterlimit:4;stroke-dasharray:none;stroke-dashoffset:0;stroke-opacity:1;color-rendering:auto;image-rendering:auto;shape-rendering:auto;text-rendering:auto;enable-background:accumulate"
       id="path4639" />
    <text
       xml:space="preserve"
       style="font-style:normal;font-weight:normal;font-size:15px;line-height:125%;font-family:sans-serif;text-align:end;letter-spacing:0px;word-spacing:0px;text-anchor:end;fill:#404040;fill-opacity:1;stroke:none;stroke-width:1px;stroke-linecap:butt;stroke-linejoin:miter;stroke-opacity:1"
       x="663.08002"
       y="21.804518"
       id="text4704"
       sodipodi:linespacing="125%"><tspan
         sodipodi:role="line"
         id="tspan4706"
         x="663.08002"
         y="21.804518">apical</tspan></text>
    <path
       style="display:inline;fill:none;fill-rule:evenodd;stroke:#931111;stroke-width:0.50000006;stroke-linecap:butt;stroke-linejoin:miter;stroke-miterlimit:4;stroke-dasharray:none;stroke-opacity:1"
       d="m 536.09676,76.201861 0,-13.4448"
       id="path5192"
       inkscape:connector-curvature="0" />
    <path
       style="display:inline;fill:none;fill-rule:evenodd;stroke:#931111;stroke-width:0.50000006;stroke-linecap:butt;stroke-linejoin:miter;stroke-miterlimit:4;stroke-dasharray:none;stroke-opacity:1"
       d="m 555.26733,71.512051 0,-13.444806"
       id="path5190"
       inkscape:connector-curvature="0" />
    <path
       style="display:inline;fill:none;fill-rule:evenodd;stroke:#931111;stroke-width:0.50000006;stroke-linecap:butt;stroke-linejoin:miter;stroke-miterlimit:4;stroke-dasharray:none;stroke-opacity:1"
       d="m 557.92473,65.914522 0,-13.444791"
       id="path5188"
       inkscape:connector-curvature="0" />
    <path
       style="display:inline;fill:none;fill-rule:evenodd;stroke:#931111;stroke-width:0.50000006;stroke-linecap:butt;stroke-linejoin:miter;stroke-miterlimit:4;stroke-dasharray:none;stroke-opacity:1"
       d="m 543.9775,60.922142 0,-13.444794"
       id="path5186"
       inkscape:connector-curvature="0" />
    <path
       style="display:inline;fill:none;fill-rule:evenodd;stroke:#931111;stroke-width:0.50000006;stroke-linecap:butt;stroke-linejoin:miter;stroke-miterlimit:4;stroke-dasharray:none;stroke-opacity:1"
       d="m 532.3513,62.229194 0,-13.444799"
       id="path5184"
       inkscape:connector-curvature="0" />
    <path
       style="display:inline;fill:none;fill-rule:evenodd;stroke:#931111;stroke-width:0.50000006;stroke-linecap:butt;stroke-linejoin:miter;stroke-miterlimit:4;stroke-dasharray:none;stroke-opacity:1"
       d="m 524.28769,66.973519 0,-13.444801"
       id="path5182"
       inkscape:connector-curvature="0" />
    <path
       style="display:inline;fill:none;fill-rule:evenodd;stroke:#931111;stroke-width:0.50000006;stroke-linecap:butt;stroke-linejoin:miter;stroke-miterlimit:4;stroke-dasharray:none;stroke-opacity:1"
       d="m 520.5612,74.689017 0,-13.444799"
       id="path5180"
       inkscape:connector-curvature="0" />
    <path
       style="display:inline;fill:none;fill-rule:evenodd;stroke:#931111;stroke-width:0.50000006;stroke-linecap:butt;stroke-linejoin:miter;stroke-miterlimit:4;stroke-dasharray:none;stroke-opacity:1"
       d="m 495.79219,77.29306 0,-13.444792"
       id="path5178"
       inkscape:connector-curvature="0" />
    <path
       style="display:inline;fill:none;fill-rule:evenodd;stroke:#931111;stroke-width:0.50000006;stroke-linecap:butt;stroke-linejoin:miter;stroke-miterlimit:4;stroke-dasharray:none;stroke-opacity:1"
       d="m 492.31264,69.797767 0,-13.444802"
       id="path5176"
       inkscape:connector-curvature="0" />
    <path
       style="display:inline;fill:none;fill-rule:evenodd;stroke:#931111;stroke-width:0.50000006;stroke-linecap:butt;stroke-linejoin:miter;stroke-miterlimit:4;stroke-dasharray:none;stroke-opacity:1"
       d="m 505.36053,61.527291 0,-13.444816"
       id="path5174"
       inkscape:connector-curvature="0" />
    <path
       style="display:inline;fill:none;fill-rule:evenodd;stroke:#931111;stroke-width:0.50000006;stroke-linecap:butt;stroke-linejoin:miter;stroke-miterlimit:4;stroke-dasharray:none;stroke-opacity:1"
       d="m 509.01539,55.628397 0,-13.444783"
       id="path5172"
       inkscape:connector-curvature="0" />
    <path
       style="display:inline;fill:none;fill-rule:evenodd;stroke:#931111;stroke-width:0.50000006;stroke-linecap:butt;stroke-linejoin:miter;stroke-miterlimit:4;stroke-dasharray:none;stroke-opacity:1"
       d="m 525.20019,55.841427 0,-13.44479"
       id="path5170"
       inkscape:connector-curvature="0" />
    <path
       style="display:inline;fill:none;fill-rule:evenodd;stroke:#931111;stroke-width:0.50000006;stroke-linecap:butt;stroke-linejoin:miter;stroke-miterlimit:4;stroke-dasharray:none;stroke-opacity:1"
       d="m 535.01662,52.173521 0,-13.4448"
       id="path5168"
       inkscape:connector-curvature="0" />
    <path
       style="display:inline;fill:none;fill-rule:evenodd;stroke:#931111;stroke-width:0.50000006;stroke-linecap:butt;stroke-linejoin:miter;stroke-miterlimit:4;stroke-dasharray:none;stroke-opacity:1"
       d="m 547.39376,54.892718 0,-13.444803"
       id="path5166"
       inkscape:connector-curvature="0" />
    <path
       style="display:inline;fill:none;fill-rule:evenodd;stroke:#931111;stroke-width:0.50000006;stroke-linecap:butt;stroke-linejoin:miter;stroke-miterlimit:4;stroke-dasharray:none;stroke-opacity:1"
       d="m 562.34911,51.578636 0,-13.444795"
       id="path5164"
       inkscape:connector-curvature="0" />
    <path
       style="display:inline;fill:none;fill-rule:evenodd;stroke:#931111;stroke-width:0.50000006;stroke-linecap:butt;stroke-linejoin:miter;stroke-miterlimit:4;stroke-dasharray:none;stroke-opacity:1"
       d="m 571.69062,54.893523 0,-13.444782"
       id="path5162"
       inkscape:connector-curvature="0" />
    <path
       style="display:inline;fill:none;fill-rule:evenodd;stroke:#931111;stroke-width:0.50000006;stroke-linecap:butt;stroke-linejoin:miter;stroke-miterlimit:4;stroke-dasharray:none;stroke-opacity:1"
       d="m 568.91229,60.327269 0,-13.444798"
       id="path4641"
       inkscape:connector-curvature="0" />
    <text
       sodipodi:linespacing="125%"
       id="text4708"
       y="66.684166"
       x="663.08002"
       style="font-style:normal;font-weight:normal;font-size:15px;line-height:125%;font-family:sans-serif;text-align:end;letter-spacing:0px;word-spacing:0px;text-anchor:end;fill:#404040;fill-opacity:1;stroke:none;stroke-width:1px;stroke-linecap:butt;stroke-linejoin:miter;stroke-opacity:1"
       xml:space="preserve"><tspan
         y="66.684166"
         x="663.08002"
         id="tspan4710"
         sodipodi:role="line">sagittal</tspan></text>
    <g
       id="g5223"
       transform="translate(10.000001,114.00001)">
      <path
         sodipodi:nodetypes="cc"
         inkscape:connector-curvature="0"
         id="path4820"
         d="m 53.81859,41.563675 -38.237731,0"
         style="display:inline;fill:#404040;fill-rule:evenodd;stroke:#404040;stroke-width:1px;stroke-linecap:butt;stroke-linejoin:miter;stroke-opacity:1;marker-start:url(#Arrow1Sstart)" />
      <path
         style="display:inline;fill:#404040;fill-rule:evenodd;stroke:#404040;stroke-width:1px;stroke-linecap:butt;stroke-linejoin:miter;stroke-opacity:1;marker-start:url(#marker5118)"
         d="M 15.816399,-1.6211248 15.614509,41.475915"
         id="path4822"
         inkscape:connector-curvature="0"
         sodipodi:nodetypes="cc" />
      <path
         sodipodi:nodetypes="cc"
         inkscape:connector-curvature="0"
         id="path4824"
         d="M 37.731762,28.54812 15.580859,41.374975"
         style="display:inline;fill:#404040;fill-rule:evenodd;stroke:#404040;stroke-width:1px;stroke-linecap:butt;stroke-linejoin:miter;stroke-opacity:1;marker-start:url(#marker5114)" />
      <text
         xml:space="preserve"
         style="font-style:normal;font-weight:normal;font-size:12.5px;line-height:125%;font-family:sans-serif;letter-spacing:0px;word-spacing:0px;fill:#404040;fill-opacity:1;stroke:none;stroke-width:1px;stroke-linecap:butt;stroke-linejoin:miter;stroke-opacity:1"
         x="58.943207"
         y="41.420563"
         id="text5123"
         sodipodi:linespacing="125%"><tspan
           sodipodi:role="line"
           id="tspan5125"
           x="58.943207"
           y="41.420563">x</tspan></text>
      <text
         xml:space="preserve"
         style="font-style:normal;font-weight:normal;font-size:12.5px;line-height:125%;font-family:sans-serif;letter-spacing:0px;word-spacing:0px;fill:#404040;fill-opacity:1;stroke:none;stroke-width:1px;stroke-linecap:butt;stroke-linejoin:miter;stroke-opacity:1"
         x="47.522369"
         y="24.670008"
         id="text5127"
         sodipodi:linespacing="125%"><tspan
           sodipodi:role="line"
           id="tspan5129"
           x="47.522369"
           y="24.670008">y</tspan></text>
      <text
         xml:space="preserve"
         style="font-style:normal;font-weight:normal;font-size:12.5px;line-height:125%;font-family:sans-serif;letter-spacing:0px;word-spacing:0px;fill:#404040;fill-opacity:1;stroke:none;stroke-width:1px;stroke-linecap:butt;stroke-linejoin:miter;stroke-opacity:1"
         x="20.873812"
         y="-1.5979165"
         id="text5131"
         sodipodi:linespacing="125%"><tspan
           sodipodi:role="line"
           id="tspan5133"
           x="20.873812"
           y="-1.5979165">z</tspan></text>
    </g>
    <g
       id="g4784"
       transform="matrix(1.0555492,0,0,1.0555492,655.3393,-27.416362)">
      <g
         transform="matrix(0.25243635,0,0,0.25243635,-206.91559,87.27847)"
         id="g4657"
         style="display:inline">
        <ellipse
           ry="6.5021763"
           rx="10.836961"
           cy="149.45369"
           cx="263.88998"
           id="ellipse4659"
           style="color:#000000;clip-rule:nonzero;display:inline;overflow:visible;visibility:visible;opacity:1;isolation:auto;mix-blend-mode:normal;color-interpolation:sRGB;color-interpolation-filters:linearRGB;solid-color:#000000;solid-opacity:1;fill:#5085c3;fill-opacity:0.66031728;fill-rule:evenodd;stroke:none;stroke-width:0.2;stroke-linecap:round;stroke-linejoin:bevel;stroke-miterlimit:4;stroke-dasharray:none;stroke-dashoffset:0;stroke-opacity:1;color-rendering:auto;image-rendering:auto;shape-rendering:auto;text-rendering:auto;enable-background:accumulate" />
        <ellipse
           style="color:#000000;clip-rule:nonzero;display:inline;overflow:visible;visibility:visible;opacity:1;isolation:auto;mix-blend-mode:normal;color-interpolation:sRGB;color-interpolation-filters:linearRGB;solid-color:#000000;solid-opacity:1;fill:#5085c3;fill-opacity:0.66031728;fill-rule:evenodd;stroke:none;stroke-width:0.2;stroke-linecap:round;stroke-linejoin:bevel;stroke-miterlimit:4;stroke-dasharray:none;stroke-dashoffset:0;stroke-opacity:1;color-rendering:auto;image-rendering:auto;shape-rendering:auto;text-rendering:auto;enable-background:accumulate"
           id="ellipse4661"
           cx="381.88998"
           cy="143.45369"
           rx="10.836961"
           ry="6.5021763" />
        <ellipse
           ry="6.5021763"
           rx="10.836961"
           cy="97.453682"
           cx="369.88998"
           id="ellipse4663"
           style="color:#000000;clip-rule:nonzero;display:inline;overflow:visible;visibility:visible;opacity:1;isolation:auto;mix-blend-mode:normal;color-interpolation:sRGB;color-interpolation-filters:linearRGB;solid-color:#000000;solid-opacity:1;fill:#5085c3;fill-opacity:0.66031728;fill-rule:evenodd;stroke:none;stroke-width:0.2;stroke-linecap:round;stroke-linejoin:bevel;stroke-miterlimit:4;stroke-dasharray:none;stroke-dashoffset:0;stroke-opacity:1;color-rendering:auto;image-rendering:auto;shape-rendering:auto;text-rendering:auto;enable-background:accumulate" />
        <ellipse
           style="color:#000000;clip-rule:nonzero;display:inline;overflow:visible;visibility:visible;opacity:1;isolation:auto;mix-blend-mode:normal;color-interpolation:sRGB;color-interpolation-filters:linearRGB;solid-color:#000000;solid-opacity:1;fill:#5085c3;fill-opacity:0.66031728;fill-rule:evenodd;stroke:none;stroke-width:0.2;stroke-linecap:round;stroke-linejoin:bevel;stroke-miterlimit:4;stroke-dasharray:none;stroke-dashoffset:0;stroke-opacity:1;color-rendering:auto;image-rendering:auto;shape-rendering:auto;text-rendering:auto;enable-background:accumulate"
           id="ellipse4665"
           cx="301.88998"
           cy="109.45368"
           rx="10.836961"
           ry="6.5021763" />
        <ellipse
           ry="6.5021763"
           rx="10.836961"
           cy="103.45368"
           cx="461.88998"
           id="ellipse4667"
           style="color:#000000;clip-rule:nonzero;display:inline;overflow:visible;visibility:visible;opacity:1;isolation:auto;mix-blend-mode:normal;color-interpolation:sRGB;color-interpolation-filters:linearRGB;solid-color:#000000;solid-opacity:1;fill:#5085c3;fill-opacity:0.66031728;fill-rule:evenodd;stroke:none;stroke-width:0.2;stroke-linecap:round;stroke-linejoin:bevel;stroke-miterlimit:4;stroke-dasharray:none;stroke-dashoffset:0;stroke-opacity:1;color-rendering:auto;image-rendering:auto;shape-rendering:auto;text-rendering:auto;enable-background:accumulate" />
      </g>
      <path
         sodipodi:nodetypes="cccccccccccccccccccccccccccccccccccccccccccccccccccccccccc"
         inkscape:connector-curvature="0"
         d="m -116.16448,116.40555 -6.77476,-6.0516 m -18.79559,5.38663 17.93111,5.15962 m 18.6536,-5.73291 3.23646,-5.71213 m -3.23646,5.71213 -11.01436,1.23826 -7.63924,4.49465 m 18.6536,-5.73291 13.213261,4.72965 m -35.397251,8.31272 3.53039,-7.30946 m -3.53039,7.30946 14.71798,1.43323 m 18.161701,-4.44302 -18.161701,4.44302 m 18.161701,-4.44302 2.51757,-5.30293 m 10.40929,-5.29322 -10.40929,5.29322 m -2.51757,5.30293 8.73956,1.93347 m -41.619241,1.07632 -23.4655,2.467 m -3.29646,-7.10085 3.29646,7.10085 m -3.29646,-7.10085 12.36124,-7.83523 m 0,0 3.46254,-5.58844 m 24.63286,-3.27308 11.72577,2.5761 m -11.72577,-2.5761 -9.29981,3.47489 -15.33305,-0.20181 m 56.744721,4.45158 2.632131,-5.14778 m -8.849871,-3.14044 8.849871,3.14044 m -8.849871,-3.14044 -14.168351,3.13966 m 20.386091,5.14856 5.676081,1.84877 m 2.52902,-9.81408 -5.57297,2.81753 m -8.849871,-3.14044 2.43834,-4.17982 m -28.332461,4.74338 1.4868,-3.66698 m -26.11966,6.94006 -1.47577,-4.14144 m -14.34801,17.56511 -6.36502,-2.23799 m 6.46337,18.13689 3.19811,-8.79805 m 35.59931,6.59 2.58417,-7.62377"
         style="color:#000000;clip-rule:nonzero;display:inline;overflow:visible;visibility:visible;opacity:1;isolation:auto;mix-blend-mode:normal;color-interpolation:sRGB;color-interpolation-filters:linearRGB;solid-color:#000000;solid-opacity:1;fill:none;fill-opacity:1;fill-rule:evenodd;stroke:#296c77;stroke-width:1.42106092;stroke-linecap:butt;stroke-linejoin:miter;stroke-miterlimit:4;stroke-dasharray:none;stroke-dashoffset:0;stroke-opacity:1;color-rendering:auto;image-rendering:auto;shape-rendering:auto;text-rendering:auto;enable-background:accumulate"
         id="path4644" />
    </g>
    <text
       xml:space="preserve"
       style="font-style:normal;font-weight:normal;font-size:15px;line-height:125%;font-family:sans-serif;text-align:end;letter-spacing:0px;word-spacing:0px;text-anchor:end;fill:#404040;fill-opacity:1;stroke:none;stroke-width:1px;stroke-linecap:butt;stroke-linejoin:miter;stroke-opacity:1"
       x="663.08002"
       y="104.38472"
       id="text4712"
       sodipodi:linespacing="125%"><tspan
         sodipodi:role="line"
         id="tspan4714"
         x="663.08002"
         y="104.38472">basal</tspan></text>
    <path
       sodipodi:nodetypes="cccccccccccccccccccccccccccccccccccccc"
       inkscape:connector-curvature="0"
       d="m 538.7265,137.12441 7.9656,14.9317 m -7.9656,-14.9317 -18.45702,13.22411 m 18.45702,-13.22411 -21.111,-8.97219 m 21.111,8.97219 -3.16666,-12.13887 m 0,0 -15.98541,-7.49381 m 19.15207,19.63268 21.11099,-10.5555 m 9.2606,6.9337 -9.2606,-6.9337 m 16.72549,-0.13943 -16.72549,0.13943 m 8.27742,-9.1267 -8.27742,9.1267 m -5.11364,-10.11528 5.11364,10.11528 m -24.27765,-1.58337 24.27765,1.58337 m -24.27765,-1.58337 -17.94434,3.16668 m -10.02772,10.55548 10.02772,-10.55548 m -10.02772,10.55548 5.04669,12.44451 m 3.77544,-32.40473 1.20559,9.40474 m -30.08185,14.33571 20.05413,-3.78023 m 0,0 31.13872,-1.58329 m 0,0 26.95592,1.40121 m -30.12258,-13.54008 7.92078,-8.57229"
       style="color:#000000;clip-rule:nonzero;display:inline;overflow:visible;visibility:visible;opacity:1;isolation:auto;mix-blend-mode:normal;color-interpolation:sRGB;color-interpolation-filters:linearRGB;solid-color:#000000;solid-opacity:1;fill:none;fill-opacity:1;fill-rule:evenodd;stroke:#153516;stroke-width:0.99999994px;stroke-linecap:butt;stroke-linejoin:miter;stroke-miterlimit:4;stroke-dasharray:none;stroke-dashoffset:0;stroke-opacity:0.46349206;color-rendering:auto;image-rendering:auto;shape-rendering:auto;text-rendering:auto;enable-background:accumulate"
       id="path4646" />
    <text
       sodipodi:linespacing="125%"
       id="text4716"
       y="136.73236"
       x="663.08002"
       style="font-style:normal;font-weight:normal;font-size:15px;line-height:125%;font-family:sans-serif;text-align:end;letter-spacing:0px;word-spacing:0px;text-anchor:end;fill:#404040;fill-opacity:1;stroke:none;stroke-width:1px;stroke-linecap:butt;stroke-linejoin:miter;stroke-opacity:1"
       xml:space="preserve"><tspan
         y="136.73236"
         x="663.08002"
         id="tspan4718"
         sodipodi:role="line">lamina</tspan></text>
    <text
       xml:space="preserve"
       style="font-style:normal;font-weight:normal;font-size:20.00000191px;line-height:125%;font-family:sans-serif;letter-spacing:0px;word-spacing:0px;fill:#404040;fill-opacity:1;stroke:none;stroke-width:1px;stroke-linecap:butt;stroke-linejoin:miter;stroke-opacity:1"
       x="25.927048"
       y="13.824723"
       id="text5234"
       sodipodi:linespacing="125%"><tspan
         sodipodi:role="line"
         id="tspan5236"
         x="25.927048"
         y="13.824723">Epithelial</tspan><tspan
         sodipodi:role="line"
         x="25.927048"
         y="38.824726"
         id="tspan5238">monolayer</tspan></text>
  </g>
</svg>
